<svg width="23" height="23" viewBox="0 0 23 23" fill="none" xmlns="http://www.w3.org/2000/svg">
<g id="akar-icons:location">
<g id="Group">
<path id="Vector" d="M11.5 12.2352C13.0878 12.2352 14.375 11.004 14.375 9.48523C14.375 7.96645 13.0878 6.73523 11.5 6.73523C9.91218 6.73523 8.625 7.96645 8.625 9.48523C8.625 11.004 9.91218 12.2352 11.5 12.2352Z" stroke="white" stroke-width="2" stroke-linecap="round" stroke-linejoin="round"/>
<path id="Vector_2" d="M11.5007 2.15192C9.46732 2.15192 7.51728 2.92453 6.0795 4.2998C4.64172 5.67507 3.83398 7.54033 3.83398 9.48525C3.83398 11.2196 4.21923 12.3544 5.27148 13.6103L11.5007 20.4853L17.7298 13.6103C18.7821 12.3544 19.1673 11.2196 19.1673 9.48525C19.1673 7.54033 18.3596 5.67507 16.9218 4.2998C15.484 2.92453 13.534 2.15192 11.5007 2.15192V2.15192Z" stroke="white" stroke-width="2" stroke-linecap="round" stroke-linejoin="round"/>
</g>
</g>
</svg>
