<svg width="16" height="16" viewBox="0 0 16 16" fill="none" xmlns="http://www.w3.org/2000/svg">
<g id="AvTimerOutlined">
<path id="Vector" d="M6.89062 11.125C6.89062 11.4688 7.17188 11.75 7.51562 11.75C7.85938 11.75 8.14062 11.4688 8.14062 11.125C8.14062 10.7812 7.85938 10.5 7.51562 10.5C7.17188 10.5 6.89062 10.7812 6.89062 11.125ZM6.89062 2.375V4.875H8.14062V3.675C10.2594 3.98125 11.8906 5.79375 11.8906 8C11.8906 10.4187 9.93437 12.375 7.51562 12.375C5.09688 12.375 3.14062 10.4187 3.14062 8C3.14062 6.95 3.50937 5.9875 4.12812 5.2375L7.51562 8.625L8.39687 7.74375L4.14688 3.49375V3.50625C2.77813 4.53125 1.89062 6.15625 1.89062 8C1.89062 11.1062 4.40313 13.625 7.51562 13.625C10.6219 13.625 13.1406 11.1062 13.1406 8C13.1406 4.89375 10.6219 2.375 7.51562 2.375H6.89062ZM11.2656 8C11.2656 7.65625 10.9844 7.375 10.6406 7.375C10.2969 7.375 10.0156 7.65625 10.0156 8C10.0156 8.34375 10.2969 8.625 10.6406 8.625C10.9844 8.625 11.2656 8.34375 11.2656 8ZM3.76562 8C3.76562 8.34375 4.04688 8.625 4.39062 8.625C4.73438 8.625 5.01562 8.34375 5.01562 8C5.01562 7.65625 4.73438 7.375 4.39062 7.375C4.04688 7.375 3.76562 7.65625 3.76562 8Z" fill="#9A9499"/>
</g>
</svg>
