<svg width="30" height="31" viewBox="0 0 30 31" fill="none" xmlns="http://www.w3.org/2000/svg">
<path d="M18.3481 10.417L23.5794 5.17637C21.395 3.26894 18.6372 2.14403 15.7419 1.97949C15.7044 2.36699 15.6856 2.75137 15.6856 3.13262C15.6743 5.80088 16.6188 8.385 18.3481 10.417Z" fill="#F01E3D"/>
<path d="M3.06797 13.9139C6.22598 13.9074 9.27843 15.0504 11.6555 17.1295L13.6805 15.1045L5.09297 6.52637C3.2777 8.61017 2.17137 11.2168 1.93359 13.9701C2.30859 13.9326 2.69297 13.9139 3.06797 13.9139Z" fill="#F01E3D"/>
<path d="M6.42383 5.19502L15.002 13.7825L17.027 11.7575C14.9478 9.38048 13.8048 6.32803 13.8113 3.17002C13.8113 2.79502 13.8113 2.41064 13.8676 2.03564C11.1142 2.27342 8.50763 3.37975 6.42383 5.19502Z" fill="#F01E3D"/>
<path d="M26.9363 14.4201C27.3176 14.4201 27.702 14.4014 28.0895 14.3639C27.9302 11.4708 26.812 8.71326 24.9113 6.52637L19.6895 11.7576C21.7116 13.4786 24.281 14.4226 26.9363 14.4201Z" fill="#F01E3D"/>
<path d="M26.9367 16.2952C23.7787 16.3017 20.7263 15.1587 18.3492 13.0796L16.3242 15.1046L24.9117 23.6827C26.727 21.5989 27.8333 18.9923 28.0711 16.239C27.6961 16.2765 27.3117 16.2952 26.9367 16.2952Z" fill="#F01E3D"/>
<path d="M3.06719 15.7891C2.67969 15.7891 2.29531 15.8078 1.91406 15.8453C2.07334 18.7383 3.19155 21.4959 5.09219 23.6828L10.3141 18.4516C8.29188 16.7306 5.72256 15.7866 3.06719 15.7891Z" fill="#F01E3D"/>
<path d="M23.5797 25.0138L15.0016 16.4263L12.9766 18.4513C15.0557 20.8283 16.1987 23.8808 16.1922 27.0388C16.1922 27.4138 16.1922 27.7981 16.1359 28.1731C18.8893 27.9354 21.4959 26.829 23.5797 25.0138Z" fill="#F01E3D"/>
<path d="M11.6551 19.792L6.42383 25.0139C8.60567 26.9281 11.3638 28.0597 14.2613 28.2295C14.2988 27.842 14.3176 27.4576 14.3176 27.0764C14.329 24.4081 13.3845 21.824 11.6551 19.792Z" fill="#F01E3D"/>
</svg>
