<svg width="24" height="25" viewBox="0 0 24 25" fill="none" xmlns="http://www.w3.org/2000/svg">
<path d="M20 13.1172V4.94719C20 3.38719 18.73 2.11719 17.17 2.11719C16.42 2.11719 15.7 2.41719 15.17 2.94719L13.92 4.19719C13.76 4.14719 13.59 4.11719 13.41 4.11719C13.01 4.11719 12.64 4.23719 12.33 4.43719L15.09 7.19719C15.29 6.88719 15.41 6.51719 15.41 6.11719C15.41 5.93719 15.38 5.77719 15.34 5.60719L16.59 4.35719C16.74 4.20719 16.95 4.11719 17.17 4.11719C17.63 4.11719 18 4.48719 18 4.94719V13.1172H11.15C10.85 12.9072 11.4 13.3872 11.15 13.1172C10.96 12.9072 11.41 13.2372 11.15 13.1172C10.84 12.9672 11.5 13.1172 11.15 13.1172C9.91 13.1272 5 13.1172 5 13.1172H2V19.1172C2 20.2172 2.9 21.1172 4 21.1172C4 21.6672 4.45 22.1172 5 22.1172H19C19.55 22.1172 20 21.6672 20 21.1172C21.1 21.1172 22 20.2172 22 19.1172V13.1172H20ZM20 19.1172H4V15.1172H20V19.1172Z" fill="#9A9499"/>
</svg>
