<svg width="24" height="24" viewBox="0 0 24 24" fill="none" xmlns="http://www.w3.org/2000/svg">
<g id="BathtubOutlined">
<path id="Vector" d="M20 13V4.83C20 3.27 18.73 2 17.17 2C16.42 2 15.7 2.3 15.17 2.83L13.92 4.08C13.76 4.03 13.59 4 13.41 4C13.01 4 12.64 4.12 12.33 4.32L15.09 7.08C15.29 6.77 15.41 6.4 15.41 6C15.41 5.82 15.38 5.66 15.34 5.49L16.59 4.24C16.74 4.09 16.95 4 17.17 4C17.63 4 18 4.37 18 4.83V13H11.15C10.85 12.79 11.4 13.27 11.15 13C10.96 12.79 11.41 13.12 11.15 13C10.84 12.85 11.5 13 11.15 13C9.91 13.01 5 13 5 13H2V19C2 20.1 2.9 21 4 21C4 21.55 4.45 22 5 22H19C19.55 22 20 21.55 20 21C21.1 21 22 20.1 22 19V13H20ZM20 19H4V15H20V19Z" fill="#F01E3D"/>
</g>
</svg>
