<svg width="25" height="24" viewBox="0 0 25 24" fill="none" xmlns="http://www.w3.org/2000/svg">
<path d="M21.5 10.78V8C21.5 6.35 20.15 5 18.5 5H14.5C13.73 5 13.03 5.3 12.5 5.78C11.97 5.3 11.27 5 10.5 5H6.5C4.85 5 3.5 6.35 3.5 8V10.78C2.89 11.33 2.5 12.12 2.5 13V19H4.5V17H20.5V19H22.5V13C22.5 12.12 22.11 11.33 21.5 10.78ZM14.5 7H18.5C19.05 7 19.5 7.45 19.5 8V10H13.5V8C13.5 7.45 13.95 7 14.5 7ZM5.5 8C5.5 7.45 5.95 7 6.5 7H10.5C11.05 7 11.5 7.45 11.5 8V10H5.5V8ZM4.5 15V13C4.5 12.45 4.95 12 5.5 12H19.5C20.05 12 20.5 12.45 20.5 13V15H4.5Z" fill="#9A9499"/>
</svg>
