<svg width="25" height="25" viewBox="0 0 25 25" fill="none" xmlns="http://www.w3.org/2000/svg">
<path d="M21.5 10.8972V8.11719C21.5 6.46719 20.15 5.11719 18.5 5.11719H14.5C13.73 5.11719 13.03 5.41719 12.5 5.89719C11.97 5.41719 11.27 5.11719 10.5 5.11719H6.5C4.85 5.11719 3.5 6.46719 3.5 8.11719V10.8972C2.89 11.4472 2.5 12.2372 2.5 13.1172V19.1172H4.5V17.1172H20.5V19.1172H22.5V13.1172C22.5 12.2372 22.11 11.4472 21.5 10.8972ZM14.5 7.11719H18.5C19.05 7.11719 19.5 7.56719 19.5 8.11719V10.1172H13.5V8.11719C13.5 7.56719 13.95 7.11719 14.5 7.11719ZM5.5 8.11719C5.5 7.56719 5.95 7.11719 6.5 7.11719H10.5C11.05 7.11719 11.5 7.56719 11.5 8.11719V10.1172H5.5V8.11719ZM4.5 15.1172V13.1172C4.5 12.5672 4.95 12.1172 5.5 12.1172H19.5C20.05 12.1172 20.5 12.5672 20.5 13.1172V15.1172H4.5Z" fill="#9A9499"/>
</svg>
