<svg width="54" height="54" viewBox="0 0 54 54" fill="none" xmlns="http://www.w3.org/2000/svg">
<path d="M37.38 18.4305C37.08 17.5455 36.24 16.9155 35.25 16.9155H18.75C17.76 16.9155 16.935 17.5455 16.62 18.4305L13.5 27.4155V39.4155C13.5 40.2405 14.175 40.9155 15 40.9155H16.5C17.325 40.9155 18 40.2405 18 39.4155V37.9155H36V39.4155C36 40.2405 36.675 40.9155 37.5 40.9155H39C39.825 40.9155 40.5 40.2405 40.5 39.4155V27.4155L37.38 18.4305ZM19.275 19.9155H34.71L36.33 24.5805H17.655L19.275 19.9155Z" fill="#F01E3D"/>
<path d="M20.25 33.4155C21.4926 33.4155 22.5 32.4082 22.5 31.1655C22.5 29.9229 21.4926 28.9155 20.25 28.9155C19.0074 28.9155 18 29.9229 18 31.1655C18 32.4082 19.0074 33.4155 20.25 33.4155Z" fill="#F01E3D"/>
<path d="M33.75 33.4155C34.9926 33.4155 36 32.4082 36 31.1655C36 29.9229 34.9926 28.9155 33.75 28.9155C32.5074 28.9155 31.5 29.9229 31.5 31.1655C31.5 32.4082 32.5074 33.4155 33.75 33.4155Z" fill="#F01E3D"/>
<path d="M20.25 34.1704C21.4926 34.1704 22.5 33.1631 22.5 31.9204C22.5 30.6778 21.4926 29.6704 20.25 29.6704C19.0074 29.6704 18 30.6778 18 31.9204C18 33.1631 19.0074 34.1704 20.25 34.1704Z" fill="#FDE8EB"/>
<path d="M33.75 34.1704C34.9926 34.1704 36 33.1631 36 31.9204C36 30.6778 34.9926 29.6704 33.75 29.6704C32.5074 29.6704 31.5 30.6778 31.5 31.9204C31.5 33.1631 32.5074 34.1704 33.75 34.1704Z" fill="#FDE8EB"/>
</svg>
