<svg width="71" height="71" viewBox="0 0 71 71" fill="none" xmlns="http://www.w3.org/2000/svg">
<g filter="url(#filter0_d_860_11117)">
<rect x="10.5" y="10.3418" width="50" height="50" rx="25" fill="white"/>
<path d="M35.502 25.3418C41.025 25.3418 45.502 29.8188 45.502 35.3418C45.502 40.8648 41.025 45.3418 35.502 45.3418C33.7347 45.3446 31.9986 44.877 30.472 43.9868L25.506 45.3418L26.858 40.3738C25.9671 38.8467 25.499 37.1098 25.502 35.3418C25.502 29.8188 29.979 25.3418 35.502 25.3418ZM32.094 30.6418L31.894 30.6498C31.7645 30.6577 31.6379 30.6917 31.522 30.7498C31.4135 30.8112 31.3145 30.888 31.228 30.9778C31.108 31.0908 31.04 31.1888 30.967 31.2838C30.5971 31.7647 30.3979 32.3551 30.401 32.9618C30.403 33.4518 30.531 33.9288 30.731 34.3748C31.14 35.2768 31.813 36.2318 32.701 37.1168C32.915 37.3298 33.125 37.5438 33.351 37.7428C34.4544 38.7143 35.7692 39.4148 37.191 39.7888L37.759 39.8758C37.944 39.8858 38.129 39.8718 38.315 39.8628C38.6062 39.8478 38.8906 39.7689 39.148 39.6318C39.2789 39.5643 39.4067 39.4909 39.531 39.4118C39.531 39.4118 39.574 39.3838 39.656 39.3218C39.791 39.2218 39.874 39.1508 39.986 39.0338C40.069 38.9478 40.141 38.8468 40.196 38.7318C40.274 38.5688 40.352 38.2578 40.384 37.9988C40.408 37.8008 40.401 37.6928 40.398 37.6258C40.394 37.5188 40.305 37.4078 40.208 37.3608L39.626 37.0998C39.626 37.0998 38.756 36.7208 38.224 36.4788C38.1683 36.4545 38.1086 36.4406 38.048 36.4378C37.9795 36.4308 37.9104 36.4385 37.8452 36.4604C37.78 36.4823 37.7203 36.5179 37.67 36.5648C37.665 36.5628 37.598 36.6198 36.875 37.4958C36.8335 37.5516 36.7763 37.5937 36.7108 37.6169C36.6452 37.64 36.5743 37.6431 36.507 37.6258C36.4418 37.6083 36.378 37.5863 36.316 37.5598C36.192 37.5078 36.149 37.4878 36.064 37.4518C35.49 37.2013 34.9587 36.8629 34.489 36.4488C34.363 36.3388 34.246 36.2188 34.126 36.1028C33.7326 35.726 33.3897 35.2998 33.106 34.8348L33.047 34.7398C33.0046 34.676 32.9703 34.6071 32.945 34.5348C32.907 34.3878 33.006 34.2698 33.006 34.2698C33.006 34.2698 33.249 34.0038 33.362 33.8598C33.472 33.7198 33.565 33.5838 33.625 33.4868C33.743 33.2968 33.78 33.1018 33.718 32.9508C33.438 32.2668 33.148 31.5858 32.85 30.9098C32.791 30.7758 32.616 30.6798 32.457 30.6608C32.403 30.6548 32.349 30.6488 32.295 30.6448C32.1607 30.6381 32.0261 30.6395 31.892 30.6488L32.094 30.6418Z" fill="#0ACF83"/>
</g>
<defs>
<filter id="filter0_d_860_11117" x="0.5" y="0.341797" width="70" height="70" filterUnits="userSpaceOnUse" color-interpolation-filters="sRGB">
<feFlood flood-opacity="0" result="BackgroundImageFix"/>
<feColorMatrix in="SourceAlpha" type="matrix" values="0 0 0 0 0 0 0 0 0 0 0 0 0 0 0 0 0 0 127 0" result="hardAlpha"/>
<feOffset/>
<feGaussianBlur stdDeviation="5"/>
<feColorMatrix type="matrix" values="0 0 0 0 0 0 0 0 0 0 0 0 0 0 0 0 0 0 0.2 0"/>
<feBlend mode="normal" in2="BackgroundImageFix" result="effect1_dropShadow_860_11117"/>
<feBlend mode="normal" in="SourceGraphic" in2="effect1_dropShadow_860_11117" result="shape"/>
</filter>
</defs>
</svg>
