<svg width="54" height="54" viewBox="0 0 54 54" fill="none" xmlns="http://www.w3.org/2000/svg">
<path d="M27.4688 14.917C27.7275 14.917 27.9375 15.127 27.9375 15.3857V16.3232C27.9375 16.582 27.7275 16.792 27.4688 16.792H23.25V20.0732C23.25 20.332 23.04 20.542 22.7812 20.542H21.8438C21.585 20.542 21.375 20.332 21.375 20.0732V16.792C21.375 15.7561 22.2141 14.917 23.25 14.917H27.4688Z" fill="#F01E3D"/>
<path d="M23.25 34.1357V37.417H27.4688C27.7275 37.417 27.9375 37.627 27.9375 37.8857V38.8232C27.9375 39.082 27.7275 39.292 27.4688 39.292H23.25C22.2141 39.292 21.375 38.4529 21.375 37.417V34.1357C21.375 33.877 21.585 33.667 21.8438 33.667H22.7812C23.04 33.667 23.25 33.877 23.25 34.1357Z" fill="#F01E3D"/>
<path d="M13.875 28.0418V26.1668C13.875 25.9081 14.085 25.6981 14.3438 25.6981H23.25V22.7487C23.25 22.6259 23.3981 22.565 23.4844 22.6512L27.8325 26.9993C27.8897 27.0565 27.8897 27.1503 27.8325 27.2075L23.4844 31.5575C23.3981 31.6437 23.25 31.5818 23.25 31.46V28.5106H14.3438C14.085 28.5106 13.875 28.3006 13.875 28.0418Z" fill="#F01E3D"/>
<path d="M39.3937 16.6552L30.4763 14.0012C30.1463 13.9027 29.8125 14.1446 29.8125 14.4821V39.7187C29.8125 40.0609 30.15 40.3055 30.4847 40.2062L39.3937 37.554C39.8278 37.4246 40.125 37.0327 40.125 36.5883V17.6209C40.125 17.1765 39.8278 16.7846 39.3937 16.6552ZM33.5625 28.0421C33.5625 28.5605 33.1434 28.9796 32.625 28.9796C32.1066 28.9796 31.6875 28.5605 31.6875 28.0421V26.1671C31.6875 25.6496 32.1066 25.2296 32.625 25.2296C33.1434 25.2296 33.5625 25.6496 33.5625 26.1671V28.0421Z" fill="#F01E3D"/>
</svg>
