<svg width="54" height="54" viewBox="0 0 54 54" fill="none" xmlns="http://www.w3.org/2000/svg">
<g clip-path="url(#clip0_860_10950)">
<path d="M16.0385 18.6181C15.8509 18.592 15.6548 18.603 15.4603 18.6551L12.6433 19.4099C11.8654 19.6185 11.4038 20.4179 11.6122 21.1958L11.8002 21.8993C11.9035 22.2878 11.6729 22.6866 11.2846 22.7909L10.5811 22.9817C9.8032 23.1902 9.34166 23.9896 9.55003 24.7676L11.8144 33.2185C12.023 33.9964 12.8224 34.458 13.6003 34.2496L14.3039 34.0616C14.6933 33.9565 15.094 34.1875 15.1982 34.5772L15.3862 35.2807C15.5947 36.0586 16.3941 36.5202 17.1721 36.3118L19.9891 35.557C20.767 35.3485 21.2285 34.5491 21.0202 33.7711L19.611 28.5139C19.5068 28.1249 19.726 27.6895 20.106 27.5565C21.9581 26.9081 24.2589 26.4025 26.9988 26.4025C29.7387 26.4025 32.0395 26.9081 33.8916 27.5565C34.2716 27.6895 34.4907 28.1249 34.3865 28.5139L32.9774 33.7711C32.769 34.5491 33.2305 35.3485 34.0084 35.557L36.8254 36.3118C37.6034 36.5202 38.4028 36.0586 38.6113 35.2807L38.7993 34.5772C38.9035 34.1875 39.3043 33.9565 39.6937 34.0616L40.3972 34.2496C41.1752 34.458 41.9746 33.9964 42.1831 33.2185L44.4475 24.7676C44.6559 23.9896 44.1943 23.1902 43.4164 22.9817L42.7129 22.7909C42.3247 22.6866 42.0941 22.2878 42.1973 21.8993L42.3853 21.1958C42.5937 20.4179 42.1321 19.6185 41.3542 19.4099L38.5373 18.6551C37.7593 18.4468 36.9599 18.9083 36.7514 19.6862L35.5187 24.2883C35.4145 24.6773 35.0249 24.8764 34.6438 24.7464C32.5382 24.0278 29.9664 23.4859 26.9988 23.4859C24.0311 23.4859 21.4592 24.0278 19.3536 24.7464C18.9726 24.8764 18.583 24.6773 18.4788 24.2883L17.2462 19.6862C17.0898 19.1028 16.6013 18.6965 16.0385 18.6181Z" fill="#F01E3D"/>
</g>
<defs>
<clipPath id="clip0_860_10950">
<rect width="34.9975" height="35.7573" fill="white" transform="translate(9.5 9.60449)"/>
</clipPath>
</defs>
</svg>
