<svg width="54" height="54" viewBox="0 0 54 54" fill="none" xmlns="http://www.w3.org/2000/svg">
<g clip-path="url(#clip0_860_10968)">
<path d="M41.9956 22.1709C41.5512 17.0372 37.9029 14.386 34.7025 14.0965C30.7653 13.7399 28.6928 14.9896 26.9998 16.6646C25.3072 14.9885 23.2272 13.7382 19.2971 14.0955C16.095 14.3853 12.4475 17.0365 12.0047 22.1709L12 23.7488L12.0037 23.8546C12.4549 29.2254 17.1529 34.7555 26.3678 40.7626L26.9992 41.1755L27.6309 40.7626C36.8454 34.7558 41.5444 29.2244 41.9946 23.855L42.0003 22.2795L41.9956 22.1709ZM27.983 22.8442C28.3183 21.5492 29.3238 20.703 30.2296 20.953C31.1354 21.2041 31.5964 22.4583 31.2618 23.7519C30.9259 25.0459 29.9204 25.8936 29.0146 25.6421C28.1088 25.3917 27.6471 24.1389 27.983 22.8442ZM24.1658 20.9523C25.0706 20.7019 26.0761 21.5489 26.4124 22.8432C26.7484 24.1382 26.287 25.391 25.3816 25.6414C24.4761 25.8929 23.4709 25.0449 23.1346 23.7512C22.7987 22.4576 23.2604 21.2034 24.1658 20.9523ZM20.2104 27.6269C19.6365 26.5994 19.7517 25.4186 20.4716 24.9904C21.1909 24.5615 22.2386 25.0466 22.8122 26.0755C23.3878 27.1041 23.2708 28.2849 22.5519 28.7131C21.833 29.1406 20.7843 28.6565 20.2104 27.6269ZM27.1972 33.3281C24.5193 33.3281 22.3481 35.7198 22.3481 32.4885C22.3481 29.2565 25.4579 26.6378 27.1972 26.6385C28.9365 26.6392 32.0466 29.2565 32.0466 32.4885C32.0466 35.7194 29.8758 33.3281 27.1972 33.3281ZM34.1837 27.6269C33.6102 28.6561 32.5624 29.1406 31.8422 28.7127C31.1229 28.2845 31.0063 27.103 31.5822 26.0752C32.1558 25.0463 33.2029 24.5612 33.9231 24.99C34.6434 25.4186 34.758 26.5994 34.1837 27.6269Z" fill="#F01E3D"/>
</g>
<defs>
<clipPath id="clip0_860_10968">
<rect width="30" height="31" fill="white" transform="translate(12 12.1045)"/>
</clipPath>
</defs>
</svg>
