<svg width="54" height="54" viewBox="0 0 54 54" fill="none" xmlns="http://www.w3.org/2000/svg">
<g clip-path="url(#clip0_860_10942)">
<path d="M36.5116 19.4857C35.7565 17.3336 33.899 15.6166 31.6692 15.1021C29.576 14.6216 27.4277 15.0939 25.7816 16.4039C24.1354 17.7131 23.1914 19.6694 23.1914 21.7708C23.1914 24.0099 24.3028 26.112 26.1609 27.4324C22.8916 29.0659 20.1912 27.9799 18.2587 27.1862C17.9172 27.0463 17.6011 26.9169 17.3095 26.812C16.6162 26.5613 15.8448 26.6818 15.1962 27.1386C14.4582 27.6571 14 28.5192 14 29.388C14 34.5706 18.0446 39.2904 22.4297 39.2904C23.1669 39.2904 26.1081 39.2904 26.8341 39.2904C30.9246 39.2904 34.8798 38.6417 35.3596 32.8887C35.5255 30.9048 34.5956 29.034 32.9256 27.9658C34.669 27.1611 35.9116 25.7209 36.5043 24.0192C38.4316 23.8328 40 22.2228 40 20.2474V19.4857H36.5116ZM22.7049 34.7201C22.7019 34.7201 22.699 34.7201 22.696 34.7201C21.3153 34.7201 20.0015 34.0506 19.2532 32.9273L18.6983 32.0957L19.9658 31.2506L20.5208 32.0823C20.9857 32.78 21.8265 33.1966 22.6849 33.1966C22.6863 33.1966 22.6879 33.1966 22.6901 33.1966C24.5825 33.1966 26.4332 32.7473 28.2051 31.8606L28.8865 33.2233C26.9011 34.2165 24.8212 34.7201 22.7049 34.7201ZM32.332 21.0091H30.8086V19.4857H32.332V21.0091Z" fill="#F01E3D"/>
</g>
<defs>
<clipPath id="clip0_860_10942">
<rect width="26" height="26" fill="white" transform="translate(14 14.1045)"/>
</clipPath>
</defs>
</svg>
