<svg width="36" height="37" viewBox="0 0 36 37" fill="none" xmlns="http://www.w3.org/2000/svg">
<g id="DirectionsCarOutlined">
<g id="Vector">
<path d="M28.38 9.43053C28.08 8.54553 27.24 7.91553 26.25 7.91553H9.75C8.76 7.91553 7.935 8.54553 7.62 9.43053L4.5 18.4155V30.4155C4.5 31.2405 5.175 31.9155 6 31.9155H7.5C8.325 31.9155 9 31.2405 9 30.4155V28.9155H27V30.4155C27 31.2405 27.675 31.9155 28.5 31.9155H30C30.825 31.9155 31.5 31.2405 31.5 30.4155V18.4155L28.38 9.43053ZM10.275 10.9155H25.71L27.33 15.5805H8.655L10.275 10.9155Z" fill="#F01E3D"/>
<path d="M11.25 24.4155C12.4926 24.4155 13.5 23.4082 13.5 22.1655C13.5 20.9229 12.4926 19.9155 11.25 19.9155C10.0074 19.9155 9 20.9229 9 22.1655C9 23.4082 10.0074 24.4155 11.25 24.4155Z" fill="#F01E3D"/>
<path d="M24.75 24.4155C25.9926 24.4155 27 23.4082 27 22.1655C27 20.9229 25.9926 19.9155 24.75 19.9155C23.5074 19.9155 22.5 20.9229 22.5 22.1655C22.5 23.4082 23.5074 24.4155 24.75 24.4155Z" fill="#F01E3D"/>
</g>
</g>
</svg>
