<svg width="21" height="25" viewBox="0 0 21 25" fill="none" xmlns="http://www.w3.org/2000/svg">
<path d="M18.92 6.12719C18.72 5.53719 18.16 5.11719 17.5 5.11719H6.5C5.84 5.11719 5.29 5.53719 5.08 6.12719L3 12.1172V20.1172C3 20.6672 3.45 21.1172 4 21.1172H5C5.55 21.1172 6 20.6672 6 20.1172V19.1172H18V20.1172C18 20.6672 18.45 21.1172 19 21.1172H20C20.55 21.1172 21 20.6672 21 20.1172V12.1172L18.92 6.12719ZM6.85 7.11719H17.14L18.22 10.2272H5.77L6.85 7.11719ZM19 17.1172H5V12.1172H19V17.1172Z" fill="#9A9499"/>
<path d="M7.5 16.1172C8.32843 16.1172 9 15.4456 9 14.6172C9 13.7888 8.32843 13.1172 7.5 13.1172C6.67157 13.1172 6 13.7888 6 14.6172C6 15.4456 6.67157 16.1172 7.5 16.1172Z" fill="#9A9499"/>
<path d="M16.5 16.1172C17.3284 16.1172 18 15.4456 18 14.6172C18 13.7888 17.3284 13.1172 16.5 13.1172C15.6716 13.1172 15 13.7888 15 14.6172C15 15.4456 15.6716 16.1172 16.5 16.1172Z" fill="#9A9499"/>
</svg>
