<svg width="30" height="31" viewBox="0 0 30 31" fill="none" xmlns="http://www.w3.org/2000/svg">
<g id="digitar 1">
<path id="Vector" d="M15.4688 2.91699C15.7275 2.91699 15.9375 3.12699 15.9375 3.38574V4.32324C15.9375 4.58199 15.7275 4.79199 15.4688 4.79199H11.25V8.07324C11.25 8.33199 11.04 8.54199 10.7812 8.54199H9.84375C9.585 8.54199 9.375 8.33199 9.375 8.07324V4.79199C9.375 3.75605 10.2141 2.91699 11.25 2.91699H15.4688Z" fill="#F01E3D"/>
<path id="Vector_2" d="M11.25 22.1357V25.417H15.4688C15.7275 25.417 15.9375 25.627 15.9375 25.8857V26.8232C15.9375 27.082 15.7275 27.292 15.4688 27.292H11.25C10.2141 27.292 9.375 26.4529 9.375 25.417V22.1357C9.375 21.877 9.585 21.667 9.84375 21.667H10.7812C11.04 21.667 11.25 21.877 11.25 22.1357Z" fill="#F01E3D"/>
<path id="Vector_3" d="M1.875 16.0418V14.1668C1.875 13.9081 2.085 13.6981 2.34375 13.6981H11.25V10.7487C11.25 10.6259 11.3981 10.565 11.4844 10.6512L15.8325 14.9993C15.8897 15.0565 15.8897 15.1503 15.8325 15.2075L11.4844 19.5575C11.3981 19.6437 11.25 19.5818 11.25 19.46V16.5106H2.34375C2.085 16.5106 1.875 16.3006 1.875 16.0418Z" fill="#F01E3D"/>
<path id="Vector_4" d="M27.3937 4.65523L18.4763 2.00116C18.1463 1.90273 17.8125 2.1446 17.8125 2.4821V27.7187C17.8125 28.0609 18.15 28.3055 18.4847 28.2062L27.3937 25.554C27.8278 25.4246 28.125 25.0327 28.125 24.5883V5.62085C28.125 5.17648 27.8278 4.7846 27.3937 4.65523ZM21.5625 16.0421C21.5625 16.5605 21.1434 16.9796 20.625 16.9796C20.1066 16.9796 19.6875 16.5605 19.6875 16.0421V14.1671C19.6875 13.6496 20.1066 13.2296 20.625 13.2296C21.1434 13.2296 21.5625 13.6496 21.5625 14.1671V16.0421Z" fill="#F01E3D"/>
</g>
</svg>
