<svg width="25" height="25" viewBox="0 0 25 25" fill="none" xmlns="http://www.w3.org/2000/svg">
<g id="FavoriteBorderOutlined">
<path id="Vector" d="M17 3.3418C15.26 3.3418 13.59 4.1518 12.5 5.4318C11.41 4.1518 9.74 3.3418 8 3.3418C4.92 3.3418 2.5 5.7618 2.5 8.8418C2.5 12.6218 5.9 15.7018 11.05 20.3818L12.5 21.6918L13.95 20.3718C19.1 15.7018 22.5 12.6218 22.5 8.8418C22.5 5.7618 20.08 3.3418 17 3.3418ZM12.6 18.8918L12.5 18.9918L12.4 18.8918C7.64 14.5818 4.5 11.7318 4.5 8.8418C4.5 6.8418 6 5.3418 8 5.3418C9.54 5.3418 11.04 6.3318 11.57 7.7018H13.44C13.96 6.3318 15.46 5.3418 17 5.3418C19 5.3418 20.5 6.8418 20.5 8.8418C20.5 11.7318 17.36 14.5818 12.6 18.8918Z" fill="black" fill-opacity="0.54"/>
</g>
</svg>
