<svg width="30" height="32" viewBox="0 0 30 32" fill="none" xmlns="http://www.w3.org/2000/svg">
<g id="fi_21545" clip-path="url(#clip0_860_10969)">
<g id="Group">
<path id="Vector" d="M29.9956 10.1709C29.5512 5.03722 25.9029 2.38604 22.7025 2.09651C18.7653 1.73992 16.6928 2.98955 14.9998 4.66456C13.3072 2.9885 11.2272 1.73818 7.29712 2.09546C4.09504 2.38534 0.447494 5.03652 0.00473181 10.1709L0 11.7488L0.00371785 11.8546C0.45493 17.2254 5.15294 22.7555 14.3678 28.7626L14.9992 29.1755L15.6309 28.7626C24.8454 22.7558 29.5444 17.2244 29.9946 11.855L30.0003 10.2795L29.9956 10.1709ZM15.983 10.8442C16.3183 9.54921 17.3238 8.70297 18.2296 8.95304C19.1354 9.20415 19.5964 10.4583 19.2618 11.7519C18.9259 13.0459 17.9204 13.8936 17.0146 13.6421C16.1088 13.3917 15.6471 12.1389 15.983 10.8442ZM12.1658 8.95234C13.0706 8.70192 14.0761 9.54886 14.4124 10.8432C14.7484 12.1382 14.287 13.391 13.3816 13.6414C12.4761 13.8929 11.4709 13.0449 11.1346 11.7512C10.7987 10.4576 11.2604 9.20345 12.1658 8.95234ZM8.21036 15.6269C7.63646 14.5994 7.75172 13.4186 8.47163 12.9904C9.19086 12.5615 10.2386 13.0466 10.8122 14.0755C11.3878 15.1041 11.2708 16.2849 10.5519 16.7131C9.83303 17.1406 8.78426 16.6565 8.21036 15.6269ZM15.1972 21.3281C12.5193 21.3281 10.3481 23.7198 10.3481 20.4885C10.3481 17.2565 13.4579 14.6378 15.1972 14.6385C16.9365 14.6392 20.0466 17.2565 20.0466 20.4885C20.0466 23.7194 17.8758 21.3281 15.1972 21.3281ZM22.1837 15.6269C21.6102 16.6561 20.5624 17.1406 19.8422 16.7127C19.1229 16.2845 19.0063 15.103 19.5822 14.0752C20.1558 13.0463 21.2029 12.5612 21.9231 12.99C22.6434 13.4186 22.758 14.5994 22.1837 15.6269Z" fill="#F01E3D"/>
</g>
</g>
<defs>
<clipPath id="clip0_860_10969">
<rect width="30" height="31" fill="white" transform="translate(0 0.104492)"/>
</clipPath>
</defs>
</svg>
