<svg width="26" height="27" viewBox="0 0 26 27" fill="none" xmlns="http://www.w3.org/2000/svg">
<g id="fi_993016" clip-path="url(#clip0_860_10943)">
<g id="Group">
<g id="Group_2">
<path id="Vector" d="M22.5116 5.48569C21.7565 3.33358 19.899 1.61656 17.6692 1.1021C15.576 0.621556 13.4277 1.09392 11.7816 2.40388C10.1354 3.71307 9.19141 5.66942 9.19141 7.77084C9.19141 10.0099 10.3028 12.112 12.1609 13.4324C8.89164 15.0659 6.1912 13.9799 4.25867 13.1862C3.91721 13.0463 3.6011 12.9169 3.30952 12.812C2.61625 12.5613 1.84483 12.6818 1.1962 13.1386C0.458199 13.6571 0 14.5192 0 15.388C0 20.5706 4.04457 25.2904 8.42969 25.2904C9.16688 25.2904 12.1081 25.2904 12.8341 25.2904C16.9246 25.2904 20.8798 24.6417 21.3596 18.8887C21.5255 16.9048 20.5956 15.034 18.9256 13.9658C20.669 13.1611 21.9116 11.7209 22.5043 10.0192C24.4316 9.83282 26 8.22285 26 6.24741V5.48569H22.5116ZM8.70492 20.7201C8.70193 20.7201 8.69898 20.7201 8.69598 20.7201C7.31534 20.7201 6.00148 20.0506 5.25317 18.9273L4.69828 18.0957L5.96583 17.2506L6.52077 18.0823C6.98567 18.78 7.82646 19.1966 8.68486 19.1966C8.68634 19.1966 8.68786 19.1966 8.69009 19.1966C10.5825 19.1966 12.4332 18.7473 14.2051 17.8606L14.8865 19.2233C12.9011 20.2165 10.8212 20.7201 8.70492 20.7201ZM18.332 7.00913H16.8086V5.48569H18.332V7.00913Z" fill="#F01E3D"/>
</g>
</g>
</g>
<defs>
<clipPath id="clip0_860_10943">
<rect width="26" height="26" fill="white" transform="translate(0 0.104492)"/>
</clipPath>
</defs>
</svg>
