<svg width="92" height="138" viewBox="0 0 92 138" fill="none" xmlns="http://www.w3.org/2000/svg">
<g id="Group 252">
<g id="Object">
<g id="Group">
<path id="Vector" d="M63.9911 112.208L62.5305 108.649C61.2379 108.436 60.076 107.587 59.5397 106.281C58.4108 103.53 60.6468 100.242 64.3267 100.962C64.598 101.011 64.8562 101.126 65.0905 101.281C67.4049 102.882 67.5364 105.429 66.3211 107.093L67.7817 110.652L63.9911 112.208Z" fill="#F01E3D"/>
<path id="Vector_2" d="M86.6106 116.222L54.4976 129.402C52.3917 130.267 50.0283 129.55 48.734 127.791L89.5801 111.026C89.891 113.178 88.7165 115.357 86.6106 116.222Z" fill="#E4E4E4"/>
<path id="Vector_3" d="M89.2671 109.848C89.4258 110.235 89.526 110.626 89.5796 111.025L48.7249 127.794C48.4821 127.472 48.2789 127.123 48.1201 126.737L47.8238 126.015L88.9707 109.126L89.2671 109.848Z" fill="#131313"/>
<path id="Vector_4" d="M40.9677 92.9634C36.5824 82.2791 44.6122 69.5423 58.3067 70.8515C63.6395 71.3644 68.2158 74.8795 70.2515 79.8391L72.8834 86.2514L75.7973 85.0554C77.3531 84.4168 79.1353 85.1617 79.7739 86.7175L88.9714 109.126L47.8245 126.015L38.6304 103.615C37.9919 102.059 38.7368 100.277 40.2926 99.6383L43.2065 98.4423L43.301 98.4035L41.0537 92.9281L40.9677 92.9634ZM62.5316 108.649L63.9922 112.208L67.7743 110.655L66.3137 107.097C67.529 105.433 67.406 102.882 65.083 101.284C64.8573 101.126 64.5906 101.015 64.3192 100.965C60.6393 100.246 58.4033 103.534 59.5323 106.285C60.0736 107.579 61.2356 108.428 62.5316 108.649ZM49.7786 95.7347L66.3766 88.9221L63.7517 82.527C62.7886 80.1804 60.6957 78.4582 58.2036 78.0147C50.3489 76.6186 45.4463 83.271 47.1361 89.2967L49.7786 95.7347Z" fill="#E4E4E4"/>
</g>
</g>
<path id="Vector_5" d="M35.0687 7.03165L30.8107 3.71753C30.8107 3.71753 25.9523 5.23057 25.8274 5.29304C25.7024 5.3555 18.2864 22.5542 18.2864 22.5542C18.2864 22.5542 37.2828 32.2779 35.8946 31.3271C34.5065 30.3832 34.7946 17.5674 36.0855 15.8982C37.3799 14.2255 36.2764 10.0265 36.2764 10.0265L35.0791 7.02818H35.0722L35.0687 7.03165Z" fill="#131313"/>
<path id="Vector_6" d="M23.2977 14.7808H29.0723V23.9423L22.7043 21.8497L23.2977 14.7808Z" fill="#A0616A"/>
<path id="uuid-e8a90abb-812c-425b-81fc-a172025cdd8e-44-44-47-597" d="M42.1615 73.8624C42.0123 73.026 42.0713 72.1619 42.335 71.3429L40.3223 62.6915L44.615 61.7927L46.1905 70.6662C46.7041 71.3464 47.0373 72.1446 47.1622 72.9844C47.5092 75.0839 46.6659 76.9856 45.2848 77.2251C43.9036 77.468 42.5051 75.9619 42.1581 73.8624H42.1615Z" fill="#A0616A"/>
<path id="Vector_7" d="M25.0986 124.421H31.0605V132.878H25.0986V124.421Z" fill="#A0616A"/>
<path id="Vector_8" d="M36.8627 137.997C34.2461 137.997 30.4253 137.722 30.3976 137.719C29.3738 137.809 24.2725 138.212 24.0192 137.046C23.7867 135.973 24.1303 134.853 24.1788 134.696C24.6716 129.821 24.8521 129.762 24.9631 129.73C25.1366 129.678 25.6433 129.921 26.4657 130.452L26.5178 130.487L26.5282 130.546C26.5421 130.619 26.9065 132.409 28.6347 132.139C29.818 131.951 30.2032 131.688 30.3247 131.559C30.2241 131.514 30.0991 131.434 30.0124 131.299C29.884 131.101 29.8632 130.844 29.9464 130.536C30.1685 129.727 30.8348 128.53 30.8626 128.478L30.9389 128.342L37.7129 132.913L41.8981 134.11C42.2139 134.197 42.4672 134.426 42.5956 134.728C42.7726 135.148 42.665 135.64 42.3215 135.946C41.5615 136.629 40.0484 137.799 38.466 137.945C38.0461 137.983 37.4874 138 36.8592 138L36.8627 137.997Z" fill="#131313"/>
<path id="Vector_9" d="M8.12287 117.774L13.1816 120.929L8.70633 128.105L3.64757 124.95L8.12287 117.774Z" fill="#A0616A"/>
<path id="Vector_10" d="M14.8447 136.841C14.0118 136.841 13.0922 136.723 12.3183 136.331C10.3645 135.349 5.61371 131.896 5.58595 131.871C4.67326 131.41 0.130665 129.05 0.533216 127.926C0.904537 126.892 1.78945 126.121 1.91091 126.017C4.90923 122.137 5.0897 122.186 5.20075 122.217C5.37773 122.266 5.67616 122.738 6.09607 123.623L6.12036 123.678L6.09607 123.734C6.0683 123.807 5.42978 125.517 7.03999 126.198C8.14354 126.666 8.60856 126.649 8.77861 126.6C8.71614 126.506 8.65368 126.375 8.65021 126.211C8.64327 125.975 8.76126 125.743 8.99724 125.528C9.61495 124.959 10.8122 124.296 10.8643 124.268L10.9996 124.195L14.3311 131.66L17.2496 134.887C17.4717 135.13 17.5654 135.456 17.5133 135.783C17.4404 136.234 17.0864 136.591 16.6353 136.671C16.1772 136.751 15.5352 136.837 14.8342 136.837L14.8447 136.841Z" fill="#131313"/>
<path id="Vector_11" d="M20.707 53.6895C20.707 53.6895 18.7741 53.6895 15.7445 59.7486C12.715 65.8111 16.5704 90.1378 16.5704 90.1378L5.77787 118.067L13.35 123.369L27.1722 93.4554L23.7643 126.59H32.2839L38.9121 69.219L37.3991 53.6929H20.707V53.6895Z" fill="#131313"/>
<path id="Vector_12" d="M19.4116 20.3679H30.9607L41.375 54.637H12.4085L19.4116 20.3679Z" fill="#F01E3D"/>
<path id="Vector_13" d="M29.1344 20.3679L40.8744 69.0282H46.7461C46.7461 69.0282 37.8483 23.9666 37.0883 22.0718C36.3318 20.1771 29.1379 20.3679 29.1379 20.3679H29.1344Z" fill="#F01E3D"/>
<path id="Vector_14" d="M28.2813 17.3141C24.7778 17.3141 21.9377 14.4739 21.9377 10.9704C21.9377 7.46687 24.7778 4.62671 28.2813 4.62671C31.7848 4.62671 34.625 7.46687 34.625 10.9704C34.625 14.4739 31.7848 17.3141 28.2813 17.3141Z" fill="#A0616A"/>
<path id="Vector_15" d="M36.1839 9.81475L34.6292 10.0785C33.1786 4.26924 29.8923 6.16749 29.58 6.10155C29.2676 6.03562 24.5966 11.1473 24.9749 16.325C25.3531 21.4992 18.6624 23.9249 18.6624 23.9249C18.6624 23.9249 16.3235 28.3183 18.4091 36.2687C20.4948 44.2191 16.0736 46.8878 16.0736 46.8878C7.3632 46.1486 12.5999 33.9957 13.988 31.7886C15.3761 29.578 14.4287 25.7295 14.4287 25.7295C12.2806 23.8347 14.807 19.6704 14.807 19.6704C14.807 19.6704 14.3628 14.1144 15.6884 13.0421C17.0141 11.9698 17.0765 9.3185 17.0765 9.3185C19.4155 -0.842481 27.0501 1.11476 27.0501 1.11476C36.8328 0.0424412 36.1804 9.81129 36.1804 9.81129L36.1839 9.81475Z" fill="#131313"/>
<path id="uuid-dec0bcbe-f1ad-43aa-8153-40375ac32d1e-45-45-48-598" d="M7.46417 72.8455C7.62381 72.0092 7.98473 71.2214 8.52262 70.5517L9.71638 61.7476L14.0508 62.4347L12.3746 71.2908C12.6071 72.1098 12.6349 72.9704 12.4579 73.8033C12.038 75.889 10.577 77.3638 9.19931 77.1001C7.82161 76.8363 7.04427 74.9312 7.46765 72.8455H7.46417Z" fill="#A0616A"/>
<path id="Vector_16" d="M13.5757 68.4557H7.70402C7.70402 68.4557 16.6018 23.3941 17.3618 21.4993C18.1183 19.6046 24.4551 20.4097 24.4551 20.4097L13.5757 68.4557Z" fill="#F01E3D"/>
</g>
</svg>
