<svg width="79" height="149" viewBox="0 0 79 149" fill="none" xmlns="http://www.w3.org/2000/svg">
<path d="M74.6457 15.0748C73.6511 12.828 71.3725 11.5522 69.0549 11.7345L73.3609 21.4668C75.0439 19.8698 75.6403 17.3216 74.6457 15.0748Z" fill="#131313"/>
<path d="M50.2786 33.3079L41.954 36.9901C41.5096 37.1891 40.9913 36.9857 40.7925 36.541L36.0631 25.8444C35.8644 25.3998 36.0678 24.8811 36.5123 24.6821L44.8366 20.994L50.2786 33.3079Z" fill="#E0E0E0"/>
<path d="M50.28 33.3059L45.3027 35.5112L39.8591 23.1996L44.8363 20.9943L50.28 33.3059Z" fill="#F01E3D"/>
<path d="M78.3921 32.7665L64.1336 0.521374C60.8332 9.33302 54.1389 16.8644 44.8626 20.9822L50.3042 33.29C59.5871 29.1896 69.6567 29.2935 78.3921 32.7665Z" fill="#E0E0E0"/>
<path d="M45.3908 35.5052L52.9495 49.0015C53.3087 49.4987 53.967 49.6792 54.5269 49.4288L57.0993 48.8434C57.8498 48.5094 58.1076 47.5658 57.6304 46.8968L50.2861 33.3337L45.3908 35.5052Z" fill="#131313"/>
<path d="M64.2681 0.827489L78.3921 32.7672C69.7936 29.3477 59.898 29.196 50.7424 33.0979C53.5127 31.0778 70.5362 17.7672 64.2681 0.827489Z" fill="#E9E9E9"/>
<path d="M5.21094 148.84H5.83116C5.83933 148.701 5.84973 148.564 5.86215 148.424C6.07895 145.709 6.53278 143.018 7.2184 140.382C8.79142 134.364 11.4783 128.697 15.1387 123.678C18.7887 118.642 23.39 114.377 28.6803 111.126C28.719 111.104 28.7522 111.073 28.7773 111.036C28.8023 110.999 28.8187 110.956 28.825 110.912C28.8351 110.854 28.8286 110.794 28.8063 110.74C28.7839 110.686 28.7466 110.639 28.6988 110.605C28.6509 110.571 28.5944 110.551 28.5358 110.548C28.4773 110.545 28.4191 110.559 28.3681 110.588C28.3539 110.596 28.3401 110.605 28.3268 110.615C25.3295 112.45 22.5472 114.617 20.0323 117.076C15.5337 121.483 11.9063 126.704 9.34164 132.466C7.07901 137.512 5.6931 142.909 5.24394 148.424C5.23153 148.564 5.22123 148.703 5.21094 148.84Z" fill="white"/>
<path d="M26.4854 80.4775C26.3417 80.4776 26.1981 80.4685 26.0555 80.4504C25.5644 80.39 25.0915 80.2259 24.6679 79.9692C24.2443 79.7124 23.8795 79.3686 23.5975 78.9604C23.3154 78.5521 23.1224 78.0887 23.0311 77.6003C22.9399 77.112 22.9524 76.6098 23.0679 76.1266C23.0953 76.0144 23.1284 75.9037 23.1671 75.795L12.5173 62.104C12.0484 61.4965 11.7871 60.7534 11.7722 59.985C11.7572 59.2165 11.9894 58.4637 12.4342 57.8383L16.1646 52.6355L21.0404 56.4128L19.0816 59.7919L26.8388 73.446C26.9948 73.4604 27.1496 73.4857 27.3021 73.5217C28.1378 73.7234 28.8709 74.2258 29.3625 74.9339C29.8541 75.642 30.07 76.5065 29.9693 77.3638C29.8687 78.221 29.4585 79.0114 28.8164 79.5852C28.1743 80.1591 27.3449 80.4765 26.4854 80.4775Z" fill="#A0616A"/>
<path d="M44.9167 145.352L48.83 145.351L50.6915 130.194L44.916 130.195L44.9167 145.352Z" fill="#A0616A"/>
<path d="M56.375 149L44.0763 149.001L44.0761 144.229L51.623 144.229C52.247 144.229 52.8649 144.352 53.4414 144.592C54.018 144.831 54.5418 145.183 54.9831 145.626C55.4243 146.069 55.7744 146.595 56.0132 147.174C56.252 147.753 56.375 148.373 56.375 149Z" fill="#131313"/>
<path d="M12.6764 145.352L16.5897 145.351L18.4513 130.194L12.6758 130.195L12.6764 145.352Z" fill="#A0616A"/>
<path d="M24.1367 149L11.838 149.001L11.8378 144.229L19.3847 144.229C20.0087 144.229 20.6266 144.352 21.2032 144.592C21.7797 144.831 22.3035 145.183 22.7448 145.626C23.1861 146.069 23.5361 146.595 23.7749 147.174C24.0137 147.753 24.1367 148.373 24.1367 149Z" fill="#131313"/>
<path d="M15.0781 53.3736L23.8638 56.7261L26.0088 50.7429C26.2936 49.9485 26.2896 49.0784 25.9974 48.2866C25.7052 47.4949 25.1437 46.8323 24.4122 46.416C23.6721 45.9949 22.8065 45.8533 21.9716 46.017C21.1367 46.1807 20.3877 46.6388 19.8597 47.3085L15.0781 53.3736Z" fill="#F01E3D"/>
<path d="M44.2184 133.116C43.8676 133.116 43.5269 132.998 43.25 132.782C42.973 132.566 42.7756 132.263 42.6887 131.922C38.3076 115.091 33.8591 106.654 29.089 96.8993C28.9698 96.6561 28.7763 96.4574 28.5369 96.3321C28.2974 96.2069 28.0244 96.1616 27.7575 96.203C27.4907 96.2443 27.2439 96.37 27.0532 96.5619C26.8624 96.7538 26.7375 97.0017 26.6968 97.2698L20.7841 131.582C20.725 131.965 20.5295 132.313 20.2338 132.561C19.9381 132.81 19.5625 132.943 19.1769 132.934L10.3986 132.719C10.1857 132.715 9.97577 132.667 9.78168 132.579C9.58759 132.491 9.41334 132.364 9.26947 132.206C9.1175 132.055 9.00122 131.871 8.92921 131.669C8.85719 131.467 8.83127 131.251 8.85334 131.037C12.8292 104.707 15.9596 80.8741 21.9795 73.6034C22.1464 73.4446 22.3377 73.3141 22.546 73.2166L22.3634 73.1885C22.3112 73.1803 22.1721 73.1589 22.1704 73.0186L22.1687 72.883L22.306 72.8568C22.5252 72.8491 22.744 72.8821 22.9513 72.9543L36.6907 75.0777C37.0713 75.1365 37.4176 75.3323 37.6651 75.6286C37.9125 75.9249 38.0443 76.3014 38.0357 76.688C38.7828 80.1969 39.9274 85.4932 40.0298 85.7541C47.3603 99.7488 50.2048 110.769 53.1614 129.587C53.2226 129.986 53.1312 130.393 52.9055 130.728C52.6798 131.062 52.3365 131.298 51.9446 131.388L44.5763 133.076C44.4589 133.103 44.3388 133.116 44.2184 133.116Z" fill="#131313"/>
<path d="M36.5082 77.3722C36.3849 77.3722 36.262 77.3577 36.142 77.329L22.6152 74.0978C22.4079 74.0491 22.2127 73.9584 22.0416 73.8311C21.8706 73.7038 21.7273 73.5427 21.6206 73.3576C21.5106 73.1662 21.4403 72.9545 21.4137 72.7351C21.3872 72.5157 21.405 72.2932 21.4662 72.0809C22.9248 67.0027 21.0122 60.7076 18.728 54.6614C18.4374 52.8934 18.722 51.0784 19.5396 49.4856C20.3571 47.8927 21.6641 46.6069 23.2666 45.8186L23.3034 45.8008L30.4053 46.1607C31.5714 46.4678 32.6531 47.0363 33.569 47.8235C34.4849 48.6107 35.2112 49.5961 35.6933 50.7057C38.4306 57.1389 39.2144 65.3939 38.0891 75.9423C38.0478 76.3346 37.8634 76.6976 37.5716 76.9616C37.2797 77.2256 36.9009 77.3718 36.5082 77.3722Z" fill="#F01E3D"/>
<path d="M38.3287 62.6875C37.6066 62.689 36.9021 62.4641 36.3135 62.0442L31.0742 58.2943L34.8123 53.38L38.1867 55.3309L51.7465 47.4756C51.76 47.3189 51.7845 47.1634 51.8196 47.0101C51.9785 46.3313 52.3343 45.7151 52.842 45.2393C53.3497 44.7635 53.9865 44.4497 54.6719 44.3373C55.3572 44.225 56.0604 44.3192 56.6924 44.6082C57.3244 44.8971 57.8569 45.3678 58.2225 45.9606C58.5881 46.5535 58.7705 47.2419 58.7465 47.9388C58.7225 48.6357 58.4933 49.3099 58.0878 49.8759C57.6823 50.442 57.1187 50.8747 56.4683 51.1191C55.818 51.3636 55.11 51.4089 54.434 51.2493C54.3222 51.2224 54.2118 51.1897 54.1033 51.1513L40.482 61.9422C39.868 62.4265 39.1094 62.689 38.3287 62.6875Z" fill="#A0616A"/>
<path d="M29.4122 59.8247L37.1841 54.5176L33.5316 49.3229C33.0466 48.6331 32.3344 48.1377 31.5209 47.9242C30.7073 47.7107 29.8448 47.7929 29.0857 48.1562C28.3178 48.5237 27.7062 49.1548 27.3611 49.9356C27.0161 50.7163 26.9604 51.5952 27.2042 52.4136L29.4122 59.8247Z" fill="#F01E3D"/>
<path d="M25.6737 43.137C30.0034 43.137 33.5134 39.6124 33.5134 35.2646C33.5134 30.9167 30.0034 27.3921 25.6737 27.3921C21.3439 27.3921 17.834 30.9167 17.834 35.2646C17.834 39.6124 21.3439 43.137 25.6737 43.137Z" fill="#A0616A"/>
<path d="M26.392 43.3191C25.2154 43.314 24.3076 42.07 24.3604 40.8896C24.4131 39.7092 25.2026 38.6706 26.1538 37.975C27.105 37.2795 28.2205 36.8558 29.2813 36.3444C30.342 35.833 31.3935 35.1951 32.0484 34.2134C32.4441 33.5709 32.6802 32.8424 32.7371 32.0892C32.7939 31.3359 32.6698 30.58 32.3751 29.8849C31.7656 28.4948 30.7191 27.3437 29.396 26.6078C27.4305 25.4525 25.1037 25.0831 22.8791 25.5731C20.6545 26.0632 18.6954 27.3768 17.3921 29.2523L16.0489 32.9248C14.6802 34.5775 14.4631 37.0319 15.3045 39.0083C16.1458 40.9848 17.9372 42.4719 19.9587 43.1788C22.0096 43.8407 24.2051 43.9068 26.2918 43.3695" fill="#131313"/>
<path d="M17.922 31.5321C17.385 30.7005 16.6524 30.0144 15.7889 29.5342C14.9254 29.054 13.9576 28.7945 12.9707 28.7786C11.9837 28.7627 11.0081 28.9909 10.1297 29.443C9.25132 29.8951 8.4972 30.5572 7.93382 31.3711C6.99076 32.7335 6.64828 34.4129 5.99983 35.9389C4.82536 38.6718 2.68939 40.8744 0 42.126C2.3548 42.5418 4.70076 41.3389 6.58337 39.8588C8.46598 38.3788 10.1216 36.5723 12.23 35.4401C13.8887 34.5527 15.752 34.123 17.63 34.1947" fill="#131313"/>
</svg>
