<svg width="36" height="36" viewBox="0 0 36 36" fill="none" xmlns="http://www.w3.org/2000/svg">
<g id="Social Media Icon Square/LinkedIn">
<g id="Group 73">
<rect id="Social Media Icon" y="-0.000488281" width="36" height="36" rx="8" fill="#F01E3D"/>
<path id="Instagram" fill-rule="evenodd" clip-rule="evenodd" d="M9 17.9995C9 14.4044 9 12.6068 9.85669 11.3121C10.2392 10.7339 10.7344 10.2388 11.3126 9.8562C12.6073 8.99951 14.4049 8.99951 18 8.99951C21.5951 8.99951 23.3927 8.99951 24.6874 9.8562C25.2656 10.2388 25.7608 10.7339 26.1433 11.3121C27 12.6068 27 14.4044 27 17.9995C27 21.5947 27 23.3922 26.1433 24.687C25.7608 25.2651 25.2656 25.7603 24.6874 26.1428C23.3927 26.9995 21.5951 26.9995 18 26.9995C14.4049 26.9995 12.6073 26.9995 11.3126 26.1428C10.7344 25.7603 10.2392 25.2651 9.85669 24.687C9 23.3922 9 21.5947 9 17.9995ZM22.6593 17.9997C22.6593 20.5731 20.5732 22.6591 17.9998 22.6591C15.4265 22.6591 13.3404 20.5731 13.3404 17.9997C13.3404 15.4264 15.4265 13.3403 17.9998 13.3403C20.5732 13.3403 22.6593 15.4264 22.6593 17.9997ZM17.9998 21.0827C19.7025 21.0827 21.0828 19.7024 21.0828 17.9997C21.0828 16.297 19.7025 14.9167 17.9998 14.9167C16.2971 14.9167 14.9168 16.297 14.9168 17.9997C14.9168 19.7024 16.2971 21.0827 17.9998 21.0827ZM22.8433 14.2011C23.4479 14.2011 23.9381 13.7109 23.9381 13.1062C23.9381 12.5016 23.4479 12.0114 22.8433 12.0114C22.2386 12.0114 21.7485 12.5016 21.7485 13.1062C21.7485 13.7109 22.2386 14.2011 22.8433 14.2011Z" fill="white"/>
</g>
</g>
</svg>
