<svg width="36" height="36" viewBox="0 0 36 36" fill="none" xmlns="http://www.w3.org/2000/svg">
<g id="KeyOutlined">
<path id="Vector" d="M31.1257 15.4989H18.9486C17.7527 12.1009 14.5152 9.66553 10.709 9.66553C5.8819 9.66553 1.95898 13.5884 1.95898 18.4155C1.95898 23.2426 5.8819 27.1655 10.709 27.1655C14.5152 27.1655 17.7527 24.7301 18.9486 21.3322H19.459L22.3757 24.2489L25.2923 21.3322L28.209 24.2489L34.0423 18.3572L31.1257 15.4989ZM10.709 22.7905C8.30274 22.7905 6.33398 20.8218 6.33398 18.4155C6.33398 16.0093 8.30274 14.0405 10.709 14.0405C13.1152 14.0405 15.084 16.0093 15.084 18.4155C15.084 20.8218 13.1152 22.7905 10.709 22.7905Z" fill="#F01E3D"/>
</g>
</svg>
