<svg width="36" height="36" viewBox="0 0 36 36" fill="none" xmlns="http://www.w3.org/2000/svg">
<g id="Social Media Icon Square/LinkedIn">
<g id="Group 73">
<rect id="Social Media Icon" y="-0.000488281" width="36" height="36" rx="8" fill="#F01E3D"/>
<path id="LinkedIn" d="M9 11.4194C9 10.8422 9.20271 10.366 9.60811 9.99087C10.0135 9.61568 10.5405 9.4281 11.1892 9.4281C11.8263 9.4281 12.3417 9.61279 12.7355 9.98221C13.1409 10.3632 13.3436 10.8595 13.3436 11.4714C13.3436 12.0255 13.1467 12.4873 12.7529 12.8567C12.3475 13.2376 11.8147 13.4281 11.1544 13.4281H11.1371C10.5 13.4281 9.98456 13.2376 9.59073 12.8567C9.19691 12.4757 9 11.9966 9 11.4194ZM9.22587 26.571V15.0039H13.083V26.571H9.22587ZM15.2201 26.571H19.0772V20.1121C19.0772 19.708 19.1236 19.3963 19.2162 19.177C19.3784 18.7845 19.6245 18.4526 19.9546 18.1813C20.2847 17.9101 20.6988 17.7744 21.1969 17.7744C22.4942 17.7744 23.1429 18.646 23.1429 20.3891V26.571H27V19.9389C27 18.2304 26.5946 16.9346 25.7838 16.0515C24.973 15.1684 23.9015 14.7268 22.5695 14.7268C21.0753 14.7268 19.9112 15.3675 19.0772 16.6489V16.6835H19.0598L19.0772 16.6489V15.0039H15.2201C15.2432 15.3733 15.2548 16.5219 15.2548 18.4497C15.2548 20.3776 15.2432 23.0846 15.2201 26.571Z" fill="white"/>
</g>
</g>
</svg>
