<svg width="36" height="35" viewBox="0 0 36 35" fill="none" xmlns="http://www.w3.org/2000/svg">
<path d="M17.9993 2.9165C12.3556 2.9165 7.79102 7.48109 7.79102 13.1248C7.79102 20.7811 17.9993 32.0832 17.9993 32.0832C17.9993 32.0832 28.2077 20.7811 28.2077 13.1248C28.2077 7.48109 23.6431 2.9165 17.9993 2.9165ZM10.7077 13.1248C10.7077 9.09984 13.9743 5.83317 17.9993 5.83317C22.0243 5.83317 25.291 9.09984 25.291 13.1248C25.291 17.3248 21.091 23.6103 17.9993 27.5332C14.966 23.6394 10.7077 17.2811 10.7077 13.1248Z" fill="#F01E3D"/>
<path d="M17.9993 16.7707C20.0129 16.7707 21.6452 15.1384 21.6452 13.1248C21.6452 11.1113 20.0129 9.479 17.9993 9.479C15.9858 9.479 14.3535 11.1113 14.3535 13.1248C14.3535 15.1384 15.9858 16.7707 17.9993 16.7707Z" fill="#F01E3D"/>
</svg>
