<svg width="21" height="25" viewBox="0 0 21 25" fill="none" xmlns="http://www.w3.org/2000/svg">
<path d="M20.5 3.11719L20.34 3.14719L15 5.21719L9 3.11719L3.36 5.01719C3.15 5.08719 3 5.26719 3 5.49719V20.6172C3 20.8972 3.22 21.1172 3.5 21.1172L3.66 21.0872L9 19.0172L15 21.1172L20.64 19.2172C20.85 19.1472 21 18.9672 21 18.7372V3.61719C21 3.33719 20.78 3.11719 20.5 3.11719ZM10 5.58719L14 6.98719V18.6472L10 17.2472V5.58719ZM5 6.57719L8 5.56719V17.2672L5 18.4272V6.57719ZM19 17.6572L16 18.6672V6.97719L19 5.81719V17.6572Z" fill="#F01E3D"/>
</svg>
