<svg width="36" height="19" viewBox="0 0 36 19" fill="none" xmlns="http://www.w3.org/2000/svg">
<path id="path1057" d="M7.03847 0.618099C6.85085 0.591966 6.65476 0.603034 6.46027 0.655127L3.64329 1.40993C2.86537 1.61845 2.40383 2.41786 2.6122 3.19582L2.80019 3.89935C2.90345 4.28782 2.67285 4.6866 2.28465 4.79087L1.58112 4.98171C0.803197 5.19023 0.341658 5.98963 0.550028 6.76759L2.81443 15.2185C3.02296 15.9964 3.82236 16.458 4.60032 16.2496L5.30385 16.0616C5.69325 15.9565 6.09399 16.1875 6.19822 16.5772L6.38621 17.2807C6.59474 18.0586 7.39414 18.5202 8.1721 18.3118L10.9891 17.557C11.767 17.3485 12.2285 16.5491 12.0202 15.7711L10.611 10.5139C10.5068 10.1249 10.726 9.6895 11.106 9.55645C12.9581 8.90809 15.2589 8.40252 17.9988 8.40252C20.7387 8.40252 23.0395 8.90812 24.8916 9.5565C25.2716 9.68952 25.4907 10.1249 25.3865 10.5139L23.9774 15.7711C23.769 16.5491 24.2305 17.3485 25.0084 17.557L27.8254 18.3118C28.6034 18.5202 29.4028 18.0586 29.6113 17.2807L29.7993 16.5772C29.9035 16.1875 30.3043 15.9565 30.6937 16.0616L31.3972 16.2496C32.1752 16.458 32.9746 15.9964 33.1831 15.2185L35.4475 6.76759C35.6559 5.98963 35.1943 5.19023 34.4164 4.98171L33.7129 4.79087C33.3247 4.6866 33.0941 4.28782 33.1973 3.89935L33.3853 3.19582C33.5937 2.41786 33.1321 1.61845 32.3542 1.40993L29.5373 0.655127C28.7593 0.446757 27.9599 0.908296 27.7514 1.68621L26.5187 6.28827C26.4145 6.67727 26.0249 6.87643 25.6438 6.74636C23.5382 6.02779 20.9664 5.48586 17.9988 5.48586C15.0311 5.48586 12.4592 6.02781 10.3536 6.7464C9.9726 6.87645 9.583 6.67727 9.4788 6.28827L8.24615 1.68621C8.08976 1.10278 7.60134 0.696497 7.03847 0.618099Z" fill="#F01E3D"/>
</svg>
