<svg width="24" height="25" viewBox="0 0 24 25" fill="none" xmlns="http://www.w3.org/2000/svg">
<g id="PhoneOutlined">
<path id="Vector" d="M6.54 5.3186C6.6 6.2086 6.75 7.0786 6.99 7.9086L5.79 9.1086C5.38 7.9086 5.12 6.6386 5.03 5.3186H6.54ZM16.4 17.3386C17.25 17.5786 18.12 17.7286 19 17.7886V19.2786C17.68 19.1886 16.41 18.9286 15.2 18.5286L16.4 17.3386ZM7.5 3.3186H4C3.45 3.3186 3 3.7686 3 4.3186C3 13.7086 10.61 21.3186 20 21.3186C20.55 21.3186 21 20.8686 21 20.3186V16.8286C21 16.2786 20.55 15.8286 20 15.8286C18.76 15.8286 17.55 15.6286 16.43 15.2586C16.33 15.2186 16.22 15.2086 16.12 15.2086C15.86 15.2086 15.61 15.3086 15.41 15.4986L13.21 17.6986C10.38 16.2486 8.06 13.9386 6.62 11.1086L8.82 8.9086C9.1 8.6286 9.18 8.2386 9.07 7.8886C8.7 6.7686 8.5 5.5686 8.5 4.3186C8.5 3.7686 8.05 3.3186 7.5 3.3186Z" fill="#F01E3D"/>
</g>
</svg>
