<svg width="25" height="25" viewBox="0 0 25 25" fill="none" xmlns="http://www.w3.org/2000/svg">
<g id="ri:whatsapp-fill">
<path id="Vector" d="M12.502 2.3418C18.025 2.3418 22.502 6.8188 22.502 12.3418C22.502 17.8648 18.025 22.3418 12.502 22.3418C10.7347 22.3446 8.99862 21.877 7.47197 20.9868L2.50597 22.3418L3.85797 17.3738C2.96706 15.8467 2.49901 14.1098 2.50197 12.3418C2.50197 6.8188 6.97897 2.3418 12.502 2.3418ZM9.09397 7.6418L8.89397 7.6498C8.76449 7.65768 8.63795 7.6917 8.52197 7.7498C8.41349 7.81123 8.31446 7.88802 8.22797 7.9778C8.10797 8.0908 8.03997 8.1888 7.96697 8.2838C7.59709 8.7647 7.39794 9.35511 7.40097 9.9618C7.40297 10.4518 7.53097 10.9288 7.73097 11.3748C8.13997 12.2768 8.81297 13.2318 9.70097 14.1168C9.91497 14.3298 10.125 14.5438 10.351 14.7428C11.4544 15.7143 12.7692 16.4148 14.191 16.7888L14.759 16.8758C14.944 16.8858 15.129 16.8718 15.315 16.8628C15.6062 16.8478 15.8906 16.7689 16.148 16.6318C16.2789 16.5643 16.4067 16.4909 16.531 16.4118C16.531 16.4118 16.574 16.3838 16.656 16.3218C16.791 16.2218 16.874 16.1508 16.986 16.0338C17.069 15.9478 17.141 15.8468 17.196 15.7318C17.274 15.5688 17.352 15.2578 17.384 14.9988C17.408 14.8008 17.401 14.6928 17.398 14.6258C17.394 14.5188 17.305 14.4078 17.208 14.3608L16.626 14.0998C16.626 14.0998 15.756 13.7208 15.224 13.4788C15.1683 13.4545 15.1086 13.4406 15.048 13.4378C14.9795 13.4308 14.9104 13.4385 14.8452 13.4604C14.78 13.4823 14.7203 13.5179 14.67 13.5648C14.665 13.5628 14.598 13.6198 13.875 14.4958C13.8335 14.5516 13.7763 14.5937 13.7108 14.6169C13.6452 14.64 13.5743 14.6431 13.507 14.6258C13.4418 14.6083 13.378 14.5863 13.316 14.5598C13.192 14.5078 13.149 14.4878 13.064 14.4518C12.49 14.2013 11.9587 13.8629 11.489 13.4488C11.363 13.3388 11.246 13.2188 11.126 13.1028C10.7326 12.726 10.3897 12.2998 10.106 11.8348L10.047 11.7398C10.0046 11.676 9.97033 11.6071 9.94497 11.5348C9.90697 11.3878 10.006 11.2698 10.006 11.2698C10.006 11.2698 10.249 11.0038 10.362 10.8598C10.472 10.7198 10.565 10.5838 10.625 10.4868C10.743 10.2968 10.78 10.1018 10.718 9.9508C10.438 9.2668 10.148 8.5858 9.84997 7.9098C9.79097 7.7758 9.61597 7.6798 9.45697 7.6608C9.40297 7.6548 9.34897 7.6488 9.29497 7.6448C9.16067 7.63812 9.0261 7.63946 8.89197 7.6488L9.09397 7.6418Z" fill="#0ACF83"/>
</g>
</svg>
