<svg width="21" height="24" viewBox="0 0 21 24" fill="none" xmlns="http://www.w3.org/2000/svg">
<g clip-path="url(#clip0_860_10816)">
<mask id="mask0_860_10816" style="mask-type:luminance" maskUnits="userSpaceOnUse" x="-10" y="-2" width="29" height="28">
<path d="M4.47028 -1.75544L18.2257 12L4.47028 25.7554L-9.28516 12L4.47028 -1.75544Z" fill="white"/>
</mask>
<g mask="url(#mask0_860_10816)">
<path d="M7.68215 21.4705L1.26147 21.4705L1.2615 2.52951L7.68215 2.52954L7.68215 21.4705Z" stroke="#9A9499" stroke-width="1.51978" stroke-miterlimit="10" stroke-linecap="round" stroke-linejoin="round"/>
</g>
<path d="M5.1582 12H7.68222" stroke="#9A9499" stroke-width="1.51978" stroke-miterlimit="10" stroke-linecap="round" stroke-linejoin="round"/>
<path d="M3.83008 15.1567H7.68246" stroke="#9A9499" stroke-width="1.51978" stroke-miterlimit="10" stroke-linecap="round" stroke-linejoin="round"/>
<mask id="mask1_860_10816" style="mask-type:luminance" maskUnits="userSpaceOnUse" x="-10" y="-2" width="29" height="28">
<path d="M4.47028 -1.75544L18.2257 12L4.47028 25.7554L-9.28516 12L4.47028 -1.75544Z" fill="white"/>
</mask>
<g mask="url(#mask1_860_10816)">
<path d="M5.15625 18.3135L7.68024 18.3135" stroke="#9A9499" stroke-width="1.51978" stroke-miterlimit="10" stroke-linecap="round" stroke-linejoin="round"/>
</g>
<mask id="mask2_860_10816" style="mask-type:luminance" maskUnits="userSpaceOnUse" x="-3" y="-8" width="28" height="28">
<path d="M-2.67926 5.7597L11.0762 -7.99574L24.8316 5.7597L11.0762 19.5151L-2.67926 5.7597Z" fill="white"/>
</mask>
<g mask="url(#mask2_860_10816)">
<path d="M20.5466 2.54881L20.5466 8.96948L1.60569 8.96946L1.60571 2.54881L20.5466 2.54881Z" stroke="#9A9499" stroke-width="1.51978" stroke-miterlimit="10" stroke-linecap="round" stroke-linejoin="round"/>
</g>
<path d="M11.0762 5.07178V2.54776" stroke="#9A9499" stroke-width="1.51978" stroke-miterlimit="10" stroke-linecap="round" stroke-linejoin="round"/>
<path d="M14.2324 6.40039V2.54801" stroke="#9A9499" stroke-width="1.51978" stroke-miterlimit="10" stroke-linecap="round" stroke-linejoin="round"/>
<mask id="mask3_860_10816" style="mask-type:luminance" maskUnits="userSpaceOnUse" x="-3" y="-8" width="28" height="28">
<path d="M-2.67926 5.7597L11.0762 -7.99574L24.8316 5.7597L11.0762 19.5151L-2.67926 5.7597Z" fill="white"/>
</mask>
<g mask="url(#mask3_860_10816)">
<path d="M17.3906 5.07275L17.3907 2.54877" stroke="#9A9499" stroke-width="1.51978" stroke-miterlimit="10" stroke-linecap="round" stroke-linejoin="round"/>
</g>
</g>
<defs>
<clipPath id="clip0_860_10816">
<rect width="24" height="24" fill="white"/>
</clipPath>
</defs>
</svg>
