<svg width="24" height="24" viewBox="0 0 24 24" fill="none" xmlns="http://www.w3.org/2000/svg">
<g id="ruler 1" clip-path="url(#clip0_860_24845)">
<g id="g819">
<g id="g821">
<g id="Clip path group">
<mask id="mask0_860_24845" style="mask-type:luminance" maskUnits="userSpaceOnUse" x="-10" y="-2" width="29" height="28">
<g id="clipPath827">
<path id="path825" d="M4.47028 -1.75544L18.2257 12L4.47028 25.7554L-9.28516 12L4.47028 -1.75544Z" fill="white"/>
</g>
</mask>
<g mask="url(#mask0_860_24845)">
<g id="g823">
<g id="g829">
<path id="path831" d="M7.68215 21.4705L1.26147 21.4705L1.2615 2.52951L7.68215 2.52954L7.68215 21.4705Z" stroke="#F01E3D" stroke-width="1.51978" stroke-miterlimit="10" stroke-linecap="round" stroke-linejoin="round"/>
</g>
</g>
</g>
</g>
</g>
<g id="g841">
<path id="path843" d="M5.1582 12H7.68222" stroke="#F01E3D" stroke-width="1.51978" stroke-miterlimit="10" stroke-linecap="round" stroke-linejoin="round"/>
</g>
<g id="g845">
<path id="path847" d="M3.82812 15.1567H7.68051" stroke="#F01E3D" stroke-width="1.51978" stroke-miterlimit="10" stroke-linecap="round" stroke-linejoin="round"/>
</g>
<g id="g849">
<g id="Clip path group_2">
<mask id="mask1_860_24845" style="mask-type:luminance" maskUnits="userSpaceOnUse" x="-10" y="-2" width="29" height="28">
<g id="clipPath855">
<path id="path853" d="M4.47028 -1.75544L18.2257 12L4.47028 25.7554L-9.28516 12L4.47028 -1.75544Z" fill="white"/>
</g>
</mask>
<g mask="url(#mask1_860_24845)">
<g id="g851">
<g id="g857">
<path id="path859" d="M5.15625 18.3135L7.68024 18.3135" stroke="#F01E3D" stroke-width="1.51978" stroke-miterlimit="10" stroke-linecap="round" stroke-linejoin="round"/>
</g>
</g>
</g>
</g>
</g>
</g>
<g id="g819_2">
<g id="g821_2">
<g id="Clip path group_3">
<mask id="mask2_860_24845" style="mask-type:luminance" maskUnits="userSpaceOnUse" x="-3" y="-8" width="28" height="28">
<g id="clipPath827_2">
<path id="path825_2" d="M-2.67926 5.7597L11.0762 -7.99574L24.8316 5.7597L11.0762 19.5151L-2.67926 5.7597Z" fill="white"/>
</g>
</mask>
<g mask="url(#mask2_860_24845)">
<g id="g823_2">
<g id="g829_2">
<path id="path831_2" d="M20.5466 2.54881L20.5466 8.96948L1.60569 8.96946L1.60571 2.54881L20.5466 2.54881Z" stroke="#F01E3D" stroke-width="1.51978" stroke-miterlimit="10" stroke-linecap="round" stroke-linejoin="round"/>
</g>
</g>
</g>
</g>
</g>
<g id="g841_2">
<path id="path843_2" d="M11.0762 5.07178V2.54776" stroke="#F01E3D" stroke-width="1.51978" stroke-miterlimit="10" stroke-linecap="round" stroke-linejoin="round"/>
</g>
<g id="g845_2">
<path id="path847_2" d="M14.2324 6.40039V2.54801" stroke="#F01E3D" stroke-width="1.51978" stroke-miterlimit="10" stroke-linecap="round" stroke-linejoin="round"/>
</g>
<g id="g849_2">
<g id="Clip path group_4">
<mask id="mask3_860_24845" style="mask-type:luminance" maskUnits="userSpaceOnUse" x="-3" y="-8" width="28" height="28">
<g id="clipPath855_2">
<path id="path853_2" d="M-2.67926 5.7597L11.0762 -7.99574L24.8316 5.7597L11.0762 19.5151L-2.67926 5.7597Z" fill="white"/>
</g>
</mask>
<g mask="url(#mask3_860_24845)">
<g id="g851_2">
<g id="g857_2">
<path id="path859_2" d="M17.3906 5.07275L17.3907 2.54877" stroke="#F01E3D" stroke-width="1.51978" stroke-miterlimit="10" stroke-linecap="round" stroke-linejoin="round"/>
</g>
</g>
</g>
</g>
</g>
</g>
</g>
<defs>
<clipPath id="clip0_860_24845">
<rect width="24" height="24" fill="white"/>
</clipPath>
</defs>
</svg>
