<svg width="54" height="54" viewBox="0 0 54 54" fill="none" xmlns="http://www.w3.org/2000/svg">
<g clip-path="url(#clip0_860_10957)">
<path d="M39.0452 21.7954C39.0452 19.9045 38.3751 19.2344 36.4842 19.2344H16.85C14.9592 19.2344 14.2891 19.9045 14.2891 21.7954V27.771H39.0452V21.7954Z" fill="#F01E3D"/>
<path d="M42.4607 23.5024C41.5178 23.5024 40.7534 24.2668 40.7534 25.2097V29.4781H12.5826V25.2098C12.5826 24.2669 11.8183 23.5025 10.8753 23.5025C9.93234 23.5024 9.16797 24.2669 9.16797 25.2098V32.0391C9.16797 32.982 9.93234 33.7464 10.8753 33.7464H11.7289V36.3073H14.2899V33.7464H39.046V36.3073H41.607V33.7464H42.4496C43.395 33.7483 44.1637 32.9845 44.168 32.0391V25.2098C44.168 24.2669 43.4036 23.5024 42.4607 23.5024Z" fill="#F01E3D"/>
</g>
<defs>
<clipPath id="clip0_860_10957">
<rect width="35" height="35" fill="white" transform="translate(9.16602 10.271)"/>
</clipPath>
</defs>
</svg>
