<svg width="36" height="36" viewBox="0 0 36 36" fill="none" xmlns="http://www.w3.org/2000/svg">
<g id="sofa 1" clip-path="url(#clip0_860_10958)">
<g id="Group">
<g id="Group_2">
<g id="Group_3">
<path id="Vector" d="M30.0452 11.7954C30.0452 9.90447 29.3751 9.23438 27.4842 9.23438H7.85004C5.95916 9.23438 5.28906 9.90447 5.28906 11.7954V17.771H30.0452V11.7954Z" fill="#F01E3D"/>
<path id="Vector_2" d="M33.4607 13.5024C32.5178 13.5024 31.7534 14.2668 31.7534 15.2097V19.4781H3.58263V15.2098C3.58263 14.2669 2.81826 13.5025 1.87534 13.5025C0.93234 13.5024 0.167969 14.2669 0.167969 15.2098V22.0391C0.167969 22.982 0.932341 23.7464 1.87526 23.7464H2.72895V26.3073H5.28992V23.7464H30.046V26.3073H32.607V23.7464H33.4496C34.395 23.7483 35.1637 22.9845 35.168 22.0391V15.2098C35.168 14.2669 34.4036 13.5024 33.4607 13.5024Z" fill="#F01E3D"/>
</g>
</g>
</g>
</g>
<defs>
<clipPath id="clip0_860_10958">
<rect width="35" height="35" fill="white" transform="translate(0.166016 0.270996)"/>
</clipPath>
</defs>
</svg>
