<svg width="173" height="136" viewBox="0 0 173 136" fill="none" xmlns="http://www.w3.org/2000/svg">
<g id="undraw_check_boxes_re_v40f 1" clip-path="url(#clip0_860_11546)">
<path id="Vector" d="M100.354 125.267V125.631C100.332 129.858 99.6227 133.156 98.2302 135.479C98.2105 135.513 98.189 135.545 98.1692 135.58L98.0133 135.484L97.8646 135.391C99.4094 132.883 99.9561 129.338 99.9758 125.65C99.9776 125.532 99.9794 125.411 99.9776 125.29C99.9722 123.729 99.8772 122.15 99.7249 120.617C99.7141 120.498 99.7016 120.377 99.689 120.256C99.4775 118.233 99.1729 116.299 98.861 114.619C98.8395 114.501 98.8162 114.382 98.7929 114.265C98.2535 111.424 97.7033 109.366 97.5778 108.91C97.5635 108.855 97.5545 108.824 97.5527 108.817L97.723 108.768L97.7248 108.766L97.8968 108.718C97.8986 108.725 97.9291 108.828 97.9793 109.018C98.171 109.731 98.6693 111.667 99.1585 114.22C99.18 114.335 99.2033 114.454 99.2248 114.573C99.4793 115.936 99.7284 117.459 99.9256 119.057C99.9758 119.459 100.021 119.855 100.06 120.246C100.074 120.366 100.087 120.487 100.098 120.606C100.263 122.264 100.348 123.818 100.354 125.267Z" fill="white"/>
<path id="Vector_2" d="M99.1584 114.22C99.0383 114.236 98.9164 114.252 98.7928 114.265C98.4569 114.299 98.1196 114.317 97.782 114.317C96.3432 114.319 94.9224 113.996 93.6241 113.374C93.5488 113.469 93.4735 113.564 93.3965 113.662C94.7622 114.331 96.2622 114.679 97.782 114.677C98.1424 114.677 98.5025 114.658 98.8608 114.619C98.9827 114.607 99.1046 114.591 99.2247 114.573C100.216 114.43 101.18 114.137 102.083 113.703C102.006 113.604 101.931 113.507 101.857 113.411C101.002 113.813 100.093 114.085 99.1584 114.22Z" fill="white"/>
<path id="Vector_3" d="M100.061 120.246C99.9369 120.253 99.8132 120.256 99.6895 120.256C99.6519 120.258 99.6125 120.258 99.5748 120.258C98.0159 120.258 96.48 119.88 95.0982 119.155C93.7164 118.429 92.5296 117.379 91.639 116.094C91.5674 116.2 91.4957 116.306 91.4258 116.414C92.354 117.715 93.5774 118.775 94.9945 119.506C96.4116 120.237 97.9818 120.618 99.5748 120.618C99.625 120.618 99.6752 120.618 99.7254 120.617C99.8508 120.615 99.9745 120.611 100.098 120.606C102.012 120.507 103.856 119.857 105.412 118.733C105.355 118.627 105.297 118.521 105.238 118.415C103.726 119.518 101.927 120.154 100.061 120.246Z" fill="white"/>
<path id="Vector_4" d="M100.355 125.267C100.23 125.278 100.104 125.285 99.9788 125.29C99.8444 125.296 99.71 125.299 99.5756 125.299C97.4808 125.297 95.443 124.613 93.7676 123.35C92.0921 122.087 90.869 120.312 90.2813 118.292C90.2007 118.438 90.12 118.582 90.043 118.728C90.7051 120.743 91.9825 122.498 93.6938 123.742C95.405 124.986 97.4631 125.657 99.5756 125.659C99.71 125.659 99.8444 125.658 99.977 125.65C100.104 125.647 100.23 125.64 100.355 125.631C102.889 125.431 105.253 124.272 106.968 122.388C106.931 122.255 106.888 122.123 106.845 121.99C105.188 123.889 102.86 125.064 100.355 125.267Z" fill="white"/>
<g id="Group 250">
<path id="Vector_5" d="M24.0258 47.9909C37.0188 47.9909 47.5517 37.4099 47.5517 24.3574C47.5517 11.305 37.0188 0.723877 24.0258 0.723877C11.0329 0.723877 0.5 11.305 0.5 24.3574C0.5 37.4099 11.0329 47.9909 24.0258 47.9909Z" fill="#9A9499"/>
<path id="Vector_6" d="M24.0267 44.0521C34.8542 44.0521 43.6316 35.2345 43.6316 24.3575C43.6316 13.4804 34.8542 4.66284 24.0267 4.66284C13.1993 4.66284 4.42188 13.4804 4.42188 24.3575C4.42188 35.2345 13.1993 44.0521 24.0267 44.0521Z" fill="#282828"/>
</g>
<path id="Vector_7" d="M148.975 47.9909C161.968 47.9909 172.501 37.4099 172.501 24.3574C172.501 11.305 161.968 0.723877 148.975 0.723877C135.982 0.723877 125.449 11.305 125.449 24.3574C125.449 37.4099 135.982 47.9909 148.975 47.9909Z" fill="#9A9499"/>
<path id="Vector_8" d="M148.974 44.0518C159.801 44.0518 168.579 35.2342 168.579 24.3572C168.579 13.4802 159.801 4.6626 148.974 4.6626C138.147 4.6626 129.369 13.4802 129.369 24.3572C129.369 35.2342 138.147 44.0518 148.974 44.0518Z" fill="#282828"/>
<g id="Group 249">
<path id="Vector_9" d="M86.0356 47.991C99.0286 47.991 109.561 37.4099 109.561 24.3574C109.561 11.305 99.0286 0.723877 86.0356 0.723877C73.0426 0.723877 62.5098 11.305 62.5098 24.3574C62.5098 37.4099 73.0426 47.991 86.0356 47.991Z" fill="#9A9499"/>
<path id="Vector_10" d="M86.0365 44.0521C96.864 44.0521 105.641 35.2345 105.641 24.3575C105.641 13.4804 96.864 4.66284 86.0365 4.66284C75.209 4.66284 66.4316 13.4804 66.4316 24.3575C66.4316 35.2345 75.209 44.0521 86.0365 44.0521Z" fill="#F01E3D"/>
<path id="Vector_11" d="M83.1242 31.4795C83.0891 31.4795 83.054 31.4787 83.0189 31.477C82.7088 31.4619 82.4057 31.3797 82.1302 31.236C81.8548 31.0922 81.6135 30.8903 81.4231 30.644L78.4158 26.7598C78.0656 26.3064 77.9087 25.7321 77.9795 25.1627C78.0504 24.5933 78.3431 24.0754 78.7936 23.7226L78.9018 23.638C79.3531 23.2863 79.9248 23.1287 80.4916 23.1998C81.0584 23.271 81.574 23.5651 81.9253 24.0176C82.0948 24.2365 82.3093 24.416 82.5543 24.5439C82.7993 24.6718 83.0689 24.745 83.3447 24.7585C83.6204 24.772 83.8958 24.7255 84.152 24.6222C84.4082 24.5188 84.6392 24.3611 84.829 24.1598L90.9354 17.6844C91.13 17.4781 91.3631 17.3122 91.6215 17.1964C91.8799 17.0806 92.1585 17.017 92.4413 17.0093C92.7241 17.0017 93.0057 17.05 93.27 17.1517C93.5342 17.2533 93.7759 17.4063 93.9813 17.6018L94.081 17.6967C94.4957 18.0914 94.7374 18.6356 94.7528 19.2094C94.7683 19.7831 94.5562 20.3396 94.1632 20.7563L84.6877 30.8036C84.4866 31.0172 84.2442 31.1873 83.9753 31.3035C83.7065 31.4197 83.4169 31.4796 83.1242 31.4795Z" fill="white"/>
</g>
<g id="Group 251">
<path id="Vector_12" d="M24.0563 19.572H39.541V6.04344C39.5251 5.20578 39.1792 4.40864 38.5791 3.82677C37.9791 3.24491 37.1738 2.92579 36.34 2.93938H31.1928C27.2577 2.93938 24.0563 6.04378 24.0563 9.85959V19.572Z" fill="#131313"/>
<path id="Vector_13" d="M18.322 132.778L21.2615 132.778L22.6602 121.387L18.3216 121.388L18.322 132.778Z" fill="#A0616A"/>
<path id="Vector_14" d="M17.5722 135.641L27.0508 135.64V135.52C27.0507 134.537 26.662 133.594 25.9701 132.899C25.2783 132.204 24.3399 131.814 23.3615 131.814L17.572 131.814L17.5722 135.641Z" fill="#131313"/>
<path id="Vector_15" d="M45.4177 132.778L48.3575 132.778L49.7559 121.387L45.4173 121.388L45.4177 132.778Z" fill="#A0616A"/>
<path id="Vector_16" d="M44.6679 135.641L54.1465 135.64V135.52C54.1464 134.537 53.7577 133.594 53.0658 132.899C52.374 132.204 51.4356 131.814 50.4572 131.814L44.6677 131.814L44.6679 135.641Z" fill="#131313"/>
<path id="Vector_17" d="M41.867 41.2698L43.7852 53.5544L25.5622 53.7952L27.96 41.9925L41.867 41.2698Z" fill="#A0616A"/>
<path id="Vector_18" d="M43.256 50.5549L49.06 66.08L49.7793 130.418H44.8639L33.1148 78.7259L22.3248 129.069H17.5293L20.8862 72.4631C20.8862 72.4631 19.8963 61.1017 24.9624 54.3975L26.1955 50.8186L43.256 50.5549Z" fill="#131313"/>
<path id="Vector_19" d="M18.3608 62.6575C18.8682 62.5186 19.3391 62.2696 19.7403 61.9281C20.1416 61.5866 20.4634 61.1609 20.6831 60.6809C20.9029 60.2009 21.0152 59.6784 21.0122 59.1501C21.0091 58.6218 20.8908 58.1006 20.6656 57.6232L28.418 32.2329L22.7158 31.0974L15.6255 55.9852C14.8523 56.4185 14.2641 57.1217 13.9724 57.9615C13.6808 58.8013 13.7059 59.7194 14.043 60.5419C14.3802 61.3643 15.006 62.0339 15.8018 62.4239C16.5976 62.8138 17.5081 62.8969 18.3608 62.6575Z" fill="#A0616A"/>
<path id="Vector_20" d="M28.6207 48.0541L41.1823 47.8105C41.5413 47.8028 41.8879 47.6771 42.1691 47.4527C42.4502 47.2282 42.6504 46.9173 42.7389 46.5677C43.4123 43.8893 44.8939 36.909 44.108 29.9566C43.9529 28.6098 43.5305 27.3079 42.8657 26.1279C42.201 24.948 41.3074 23.914 40.2379 23.087C39.1683 22.2601 37.9446 21.6571 36.6389 21.3136C35.3333 20.9702 33.9724 20.8933 32.6367 21.0875C31.2277 21.2901 29.8772 21.7897 28.6739 22.5536C27.4706 23.3174 26.4417 24.3282 25.6546 25.5196C24.8675 26.7111 24.3401 28.0562 24.107 29.4668C23.8738 30.8774 23.9401 32.3216 24.3017 33.7046C25.8829 39.7369 26.776 44.0524 26.9563 46.5317C26.983 46.8901 27.1257 47.23 27.3627 47.4993C27.5997 47.7686 27.918 47.9525 28.2689 48.023C28.3732 48.0439 28.4793 48.0544 28.5857 48.0545C28.5974 48.0545 28.609 48.0543 28.6207 48.0541Z" fill="#E4E4E4"/>
<path id="Vector_21" d="M66.7764 25.7516C66.701 25.9216 66.639 26.0974 66.591 26.2772L50.8675 31.6446L47.8292 28.9783L43.2242 33.0586L48.1462 38.304C48.5438 38.7277 49.0676 39.0105 49.6388 39.1098C50.21 39.2091 50.7978 39.1195 51.3141 38.8546L68.1393 30.221C68.7477 30.5959 69.4554 30.7759 70.1681 30.7369C70.8809 30.698 71.5649 30.442 72.1293 30.0029C72.6936 29.5639 73.1116 28.9627 73.3275 28.2792C73.5434 27.5957 73.5471 26.8624 73.338 26.1768C73.129 25.4912 72.7171 24.8858 72.1571 24.441C71.5972 23.9963 70.9157 23.7334 70.2034 23.6873C69.4911 23.6411 68.7817 23.8139 68.1695 24.1827C67.5573 24.5514 67.0714 25.0987 66.7764 25.7516Z" fill="#A0616A"/>
<path id="Vector_22" d="M50.8359 30.7889C50.8347 30.5713 50.7868 30.3566 50.6954 30.1594C50.6041 29.9622 50.4714 29.7871 50.3065 29.6461L44.5493 24.7195C43.8207 23.8807 42.7907 23.3665 41.6853 23.2896C40.5799 23.2127 39.4892 23.5793 38.6524 24.3092C37.8157 25.039 37.3013 26.0724 37.222 27.1827C37.1427 28.293 37.505 29.3896 38.2294 30.2319L42.3293 36.6455C42.4463 36.8285 42.6013 36.984 42.7835 37.1015C42.9658 37.219 43.1711 37.2956 43.3855 37.3261C43.5999 37.3567 43.8183 37.3405 44.0259 37.2786C44.2335 37.2167 44.4253 37.1106 44.5884 36.9675L50.3204 31.9382C50.4835 31.7952 50.6141 31.6184 50.7031 31.4201C50.792 31.2217 50.8373 31.0064 50.8359 30.7889Z" fill="#E4E4E4"/>
<path id="Vector_23" d="M28.765 38.6644C28.9566 38.5631 29.1243 38.4215 29.2565 38.2493C29.3887 38.077 29.4823 37.8781 29.531 37.6661L31.2332 30.2636C31.6386 29.2277 31.6186 28.0726 31.1775 27.0516C30.7364 26.0305 29.9103 25.2269 28.8802 24.8169C27.8502 24.4069 26.7003 24.4239 25.6827 24.8643C24.6652 25.3048 23.863 26.1326 23.4522 27.1663L19.6729 33.7755C19.565 33.9642 19.4989 34.1739 19.479 34.3905C19.4592 34.6071 19.486 34.8255 19.5577 35.0308C19.6294 35.236 19.7443 35.4233 19.8946 35.58C20.0449 35.7366 20.227 35.8588 20.4285 35.9384L27.512 38.7339C27.7135 38.8135 27.9298 38.8486 28.146 38.8366C28.3622 38.8246 28.5734 38.7659 28.765 38.6644Z" fill="#E4E4E4"/>
<path id="Vector_24" d="M22.6733 4.26126C22.0917 2.89343 23.0919 1.15305 24.9074 0.374003C26.7228 -0.405047 28.666 0.0722444 29.2477 1.44007C29.8293 2.8079 28.8291 4.54829 27.0136 5.32734C25.1981 6.10639 23.2549 5.62909 22.6733 4.26126Z" fill="#131313"/>
<path id="Vector_25" d="M28.3051 14.4286C26.363 10.8595 27.6687 6.38461 31.2215 4.43358C34.7743 2.48255 39.2288 3.79423 41.1709 7.36331C43.1131 10.9324 41.8074 15.4073 38.2546 17.3583C34.7018 19.3094 30.2472 17.9977 28.3051 14.4286Z" fill="#A0616A"/>
<path id="Vector_26" d="M30.7147 2.46065H39.1005C39.7152 2.45266 40.3103 2.67846 40.7663 3.09276C41.2223 3.50706 41.5055 4.07922 41.5592 4.69452C41.5809 5.02149 41.5355 5.34946 41.4258 5.65809C41.3162 5.96673 41.1446 6.24945 40.9218 6.48876C40.6989 6.72806 40.4295 6.91883 40.1302 7.04926C39.831 7.17969 39.5083 7.247 39.1821 7.24701C38.5502 7.24701 37.9443 7.49915 37.4975 7.94795C37.0508 8.39676 36.7998 9.00548 36.7998 9.64019V19.4522H23.6973V9.51016C23.6973 8.5844 23.8788 7.66771 24.2315 6.81243C24.5841 5.95714 25.101 5.18001 25.7526 4.52541C26.4043 3.8708 27.1779 3.35153 28.0292 2.99726C28.8806 2.64299 29.7931 2.46065 30.7147 2.46065Z" fill="#131313"/>
</g>
</g>
<defs>
<clipPath id="clip0_860_11546">
<rect width="172" height="136" fill="white" transform="translate(0.5)"/>
</clipPath>
</defs>
</svg>
