<svg width="223" height="136" viewBox="0 0 223 136" fill="none" xmlns="http://www.w3.org/2000/svg">
<g id="undraw_build_your__home_csh6 1" clip-path="url(#clip0_860_11626)">
<path id="Vector" d="M37.9518 31.8547C45.0071 31.8547 50.7266 38.166 50.7266 45.9513V55.8427H47.6671L45.8958 52.1778L46.3386 55.8427H26.6732L25.063 52.511L25.4655 55.8427H23.2514V48.0762C23.2514 39.1173 29.833 31.8547 37.9518 31.8547Z" fill="#131313"/>
<path id="Vector_2" d="M44.1201 49.6328C44.1201 49.6328 40.1328 58.8835 45.4492 60.7337L40.1328 78.178L31.095 77.6494L28.7026 71.8346L29.2343 63.1125L30.0317 57.2977C30.0317 57.2977 35.6139 58.6192 35.0823 48.8398L44.1201 49.6328Z" fill="#A0616A"/>
<path id="Vector_3" d="M46.2462 60.4692C46.2462 60.4692 55.0182 59.6763 54.2208 66.0197C53.4233 72.3631 52.6259 73.6846 52.6259 73.6846L51.8284 83.1997L56.6131 86.1071H61.1321C61.1321 86.1071 74.9546 89.2788 68.0434 92.7148C61.1321 96.1508 58.7397 90.0717 58.7397 90.0717C58.7397 90.0717 45.9804 90.0717 45.1829 87.9572C44.3855 85.8428 46.2462 60.4692 46.2462 60.4692Z" fill="#A0616A"/>
<path id="Vector_4" d="M29.2344 57.8261C29.2344 57.8261 20.994 54.9188 20.4624 61.2622C19.9307 67.6055 19.9307 68.1342 19.9307 68.1342L18.3358 77.1206C18.3358 77.1206 15.146 85.0499 15.146 87.4286C15.146 89.8074 12.7536 97.208 12.7536 97.208C12.7536 97.208 9.5638 107.516 13.0194 107.252C16.4751 106.987 17.0067 96.1508 17.0067 96.1508L24.1838 81.8782L26.3104 73.156L29.2344 57.8261Z" fill="#A0616A"/>
<path id="Vector_5" d="M44.9162 59.4123H47.0427L47.3085 70.5132C47.3085 70.5132 50.7642 75.2707 46.5111 79.4997L45.4478 86.3717L26.043 85.5787L24.714 78.4424C24.714 78.4424 22.0558 72.6277 25.7772 67.3415L29.2329 56.5049H31.0936C31.0936 56.5049 26.784 72.3047 35.8783 72.6277C43.3213 72.892 44.9162 59.4123 44.9162 59.4123Z" fill="#F01E3D"/>
<path id="Vector_6" d="M32.537 136.412C32.5031 133.05 35.4112 105.073 35.4112 105.073C35.4112 105.073 37.9531 133.05 38.2935 136.412H56.7656C51.249 119.129 46.1901 90.9245 45.9853 90.3542C45.9841 90.3479 45.9822 90.3418 45.9796 90.3359L45.3355 88.2022V88.2008L45.0628 87.2962V87.292L44.7746 86.3438L44.3847 85.0501L27.1074 84.522L26.6242 85.6022L24.9798 89.2782C24.8368 89.3192 24.7014 89.3828 24.5786 89.4664C21.6219 91.3922 17.9305 119.501 14.5654 136.412H32.537Z" fill="#131313"/>
<path id="Vector_7" d="M25.2462 82.4067L46.2459 83.1997C46.2459 83.1997 47.2043 90.336 46.2459 90.336C45.9801 90.336 24.1829 92.1861 24.4488 89.0144C24.7146 85.8427 25.2462 82.4067 25.2462 82.4067Z" fill="#131313"/>
<path id="Vector_8" d="M40.0116 52.66C35.8866 52.66 32.5427 49.3351 32.5427 45.2336C32.5427 41.1321 35.8866 37.8071 40.0116 37.8071C44.1365 37.8071 47.4805 41.1321 47.4805 45.2336C47.4805 49.3351 44.1365 52.66 40.0116 52.66Z" fill="#A0616A"/>
<path id="Vector_9" d="M34.3204 35.738C35.603 34.0958 37.4948 33.0557 39.6067 33.0557H39.8575C44.6932 33.0557 48.6133 37.4066 48.6133 42.7737L46.993 42.7737L46.7313 40.7932L46.3476 42.7737H36.7376L35.9324 41.0982L36.1337 42.7737H34.2432C33.361 47.13 34.6285 51.4864 38.0459 55.8428H34.8254L33.2151 52.4917L33.6177 55.8427H27.4785L26.2709 48.1353C26.2709 42.3632 29.6438 37.4685 34.3204 35.738Z" fill="#131313"/>
<path id="Vector_10" d="M32.5551 36.5495C29.9126 36.5495 27.7704 34.4195 27.7704 31.792C27.7704 29.1644 29.9126 27.0344 32.5551 27.0344C35.1976 27.0344 37.3398 29.1644 37.3398 31.792C37.3398 34.4195 35.1976 36.5495 32.5551 36.5495Z" fill="#131313"/>
<path id="Vector_11" d="M120.81 100.809C118.042 100.868 115.841 102.862 115.841 102.862C115.841 102.862 118.126 104.761 120.894 104.702C123.662 104.643 125.863 102.649 125.863 102.649C125.863 102.649 123.578 100.75 120.81 100.809Z" fill="#F01E3D"/>
<path id="Vector_12" d="M111.381 107.52C112.827 109.868 112.329 112.787 112.329 112.787C112.329 112.787 109.488 111.901 108.042 109.554C106.596 107.207 107.093 104.287 107.093 104.287C107.093 104.287 109.935 105.173 111.381 107.52Z" fill="#131313"/>
<g id="Group 253">
<path id="Vector_13" d="M53.7695 113.71H158.949V135.871H53.7695V113.71Z" fill="#F2F2F2"/>
<path id="Vector_14" d="M162.305 116.139L150.855 92.3079H59.4148L50.8659 116.139H162.305Z" fill="#E0E0E0"/>
<path id="Vector_15" d="M91.3234 93.8259H133.762V107.79H91.3234V93.8259Z" fill="#F2F2F2"/>
<path id="Vector_16" d="M131.014 82.4417L137.73 96.4063H87.3539L91.3231 82.4417H131.014Z" fill="#E0E0E0"/>
<path id="Vector_17" d="M96.5116 118.112H130.02V135.871H96.5116V118.112Z" fill="#CCCCCC"/>
<path id="Vector_18" d="M136.964 118.719H154.824V135.871H136.964V118.719Z" fill="#CCCCCC"/>
<path id="Vector_19" d="M81.4792 119.782H90.7148V135.871H81.4792V119.782Z" fill="#131313"/>
<path id="Vector_20" d="M66.9732 120.692H71.4766V124.867H66.9732V120.692Z" fill="#F01E3D"/>
<path id="Vector_21" d="M60.9459 120.692H65.4492V124.867H60.9459V120.692Z" fill="#F01E3D"/>
<path id="Vector_22" d="M66.9732 126.384H71.4766V130.71H66.9732V126.384Z" fill="#F01E3D"/>
<path id="Vector_23" d="M60.9459 126.384H65.4492V130.71H60.9459V126.384Z" fill="#F01E3D"/>
<path id="Vector_24" d="M126.343 97.647H129.867V100.914H126.343V97.647Z" fill="#131313"/>
<path id="Vector_25" d="M121.624 97.647H125.148V100.914H121.624V97.647Z" fill="#131313"/>
<path id="Vector_26" d="M126.343 102.102H129.867V105.487H126.343V102.102Z" fill="#131313"/>
<path id="Vector_27" d="M121.624 102.102H125.148V105.487H121.624V102.102Z" fill="#131313"/>
<path id="Vector_28" d="M99.9366 97.647H103.461V100.914H99.9366V97.647Z" fill="#131313"/>
<path id="Vector_29" d="M95.2139 97.647H98.7383V100.914H95.2139V97.647Z" fill="#131313"/>
<path id="Vector_30" d="M99.9366 102.102H103.461V105.487H99.9366V102.102Z" fill="#131313"/>
<path id="Vector_31" d="M95.2139 102.102H98.7383V105.487H95.2139V102.102Z" fill="#131313"/>
<path id="Vector_32" d="M113.062 97.647H116.586V100.914H113.062V97.647Z" fill="#131313"/>
<path id="Vector_33" d="M108.343 97.647H111.867V100.914H108.343V97.647Z" fill="#131313"/>
<path id="Vector_34" d="M113.062 102.102H116.586V105.487H113.062V102.102Z" fill="#131313"/>
<path id="Vector_35" d="M108.343 102.102H111.867V105.487H108.343V102.102Z" fill="#131313"/>
<path id="Vector_36" d="M86.4333 121.412H88.6523V123.468H86.4333V121.412Z" fill="#F2F2F2"/>
<path id="Vector_37" d="M83.4606 121.412H85.6797V123.468H83.4606V121.412Z" fill="#F2F2F2"/>
<path id="Vector_38" d="M86.4333 124.216H88.6523V126.348H86.4333V124.216Z" fill="#F2F2F2"/>
<path id="Vector_39" d="M83.4606 124.216H85.6797V126.348H83.4606V124.216Z" fill="#F2F2F2"/>
<path id="Vector_40" d="M82.698 129.572C82.3607 129.572 82.0874 129.3 82.0874 128.965C82.0874 128.63 82.3607 128.358 82.698 128.358C83.0352 128.358 83.3086 128.63 83.3086 128.965C83.3086 129.3 83.0352 129.572 82.698 129.572Z" fill="#F2F2F2"/>
<path id="Vector_41" d="M119.509 78.8013H124.547V80.0049H123.539V83.5066H120.517V80.0049H119.509V78.8013Z" fill="#D8D8D8"/>
<path id="Vector_42" d="M129.829 130.709C130.697 133.899 133.669 135.874 133.669 135.874C133.669 135.874 135.235 132.678 134.367 129.488C133.499 126.298 130.526 124.323 130.526 124.323C130.526 124.323 128.961 127.519 129.829 130.709Z" fill="#F01E3D"/>
<path id="Vector_43" d="M137.722 130.709C136.854 133.899 133.882 135.874 133.882 135.874C133.882 135.874 132.316 132.678 133.184 129.488C134.052 126.298 137.025 124.323 137.025 124.323C137.025 124.323 138.59 127.519 137.722 130.709Z" fill="#F01E3D"/>
<path id="Vector_44" d="M136.447 130.023C134.065 132.328 133.775 135.871 133.775 135.871C133.775 135.871 137.345 135.678 139.726 133.373C142.108 131.068 142.398 127.524 142.398 127.524C142.398 127.524 138.828 127.718 136.447 130.023Z" fill="#131313"/>
<path id="Vector_45" d="M131.101 130.023C133.483 132.328 133.773 135.871 133.773 135.871C133.773 135.871 130.203 135.678 127.822 133.373C125.44 131.068 125.15 127.524 125.15 127.524C125.15 127.524 128.72 127.718 131.101 130.023Z" fill="#131313"/>
</g>
</g>
<defs>
<clipPath id="clip0_860_11626">
<rect width="223" height="136" fill="white" transform="matrix(-1 0 0 1 223 0)"/>
</clipPath>
</defs>
</svg>
