<svg width="160" height="155" viewBox="0 0 160 155" fill="none" xmlns="http://www.w3.org/2000/svg">
<g id="undraw_agreement_re_d4dv 1" clip-path="url(#clip0_860_24183)">
<path id="Vector" d="M145.312 154.366V138.922C145.312 138.922 151.32 149.871 145.312 154.366Z" fill="#F1F1F1"/>
<path id="Vector_2" d="M145.682 154.363L134.324 143.919C134.324 143.919 146.44 146.89 145.682 154.363Z" fill="#F1F1F1"/>
<path id="Vector_3" d="M105.622 68.6632L45.3502 103.949C45.1392 104.072 44.8881 104.106 44.6519 104.044C44.4157 103.982 44.2137 103.829 44.0903 103.618L5.33152 37.1924C5.20855 36.9811 5.17428 36.7296 5.23622 36.493C5.29816 36.2564 5.45126 36.0541 5.66193 35.9305L65.9339 0.645205C66.1448 0.52203 66.3959 0.4877 66.6321 0.549745C66.8683 0.61179 67.0703 0.765145 67.1937 0.976164L105.952 67.4013C106.075 67.6126 106.11 67.8641 106.048 68.1007C105.986 68.3373 105.833 68.5396 105.622 68.6632Z" fill="white"/>
<path id="Vector_4" d="M105.622 68.6632L45.3502 103.949C45.1392 104.072 44.8881 104.106 44.6519 104.044C44.4157 103.982 44.2137 103.829 44.0903 103.618L5.33152 37.1924C5.20855 36.9811 5.17428 36.7296 5.23622 36.493C5.29816 36.2564 5.45126 36.0541 5.66193 35.9305L65.9339 0.645205C66.1448 0.52203 66.3959 0.4877 66.6321 0.549745C66.8683 0.61179 67.0703 0.765145 67.1937 0.976164L105.952 67.4013C106.075 67.6126 106.11 67.8641 106.048 68.1007C105.986 68.3373 105.833 68.5396 105.622 68.6632ZM5.84783 36.2491C5.72142 36.3232 5.62956 36.4446 5.59239 36.5866C5.55522 36.7285 5.57579 36.8795 5.64958 37.0062L44.4083 103.431C44.4824 103.558 44.6036 103.65 44.7453 103.687C44.887 103.724 45.0377 103.704 45.1643 103.63L105.436 68.3447C105.563 68.2705 105.654 68.1491 105.692 68.0071C105.729 67.8652 105.708 67.7143 105.634 67.5875L66.8757 1.16236C66.8016 1.03574 66.6804 0.94372 66.5387 0.906492C66.397 0.869265 66.2463 0.889867 66.1197 0.963779L5.84783 36.2491Z" fill="#3F3D56"/>
<path id="Vector_5" d="M44.5906 42.8645L29.6419 51.616C29.4309 51.7392 29.1798 51.7735 28.9436 51.7114C28.7074 51.6494 28.5054 51.496 28.382 51.285L19.645 36.3115C19.522 36.1002 19.4878 35.8487 19.5497 35.6121C19.6116 35.3755 19.7647 35.1732 19.9754 35.0495L34.9241 26.298C35.1351 26.1749 35.3862 26.1405 35.6224 26.2026C35.8586 26.2646 36.0605 26.418 36.184 26.629L44.921 41.6025C45.0439 41.8138 45.0782 42.0654 45.0163 42.3019C44.9543 42.5385 44.8012 42.7408 44.5906 42.8645ZM20.1613 35.3681C20.0349 35.4423 19.943 35.5637 19.9059 35.7056C19.8687 35.8476 19.8893 35.9985 19.9631 36.1253L28.7001 51.0988C28.7741 51.2254 28.8953 51.3175 29.037 51.3547C29.1787 51.3919 29.3294 51.3713 29.456 51.2974L44.4047 42.5459C44.5311 42.4717 44.623 42.3503 44.6601 42.2084C44.6973 42.0664 44.6767 41.9155 44.6029 41.7887L35.8659 26.8152C35.7919 26.6886 35.6707 26.5966 35.529 26.5593C35.3873 26.5221 35.2366 26.5427 35.11 26.6166L20.1613 35.3681Z" fill="#F2F2F2"/>
<path id="Vector_6" d="M41.3661 47.2097L26.4174 55.9612C26.2275 56.0721 26.0015 56.103 25.789 56.0471C25.5764 55.9913 25.3946 55.8533 25.2835 55.6634L16.5465 40.6898C16.4358 40.4997 16.405 40.2733 16.4607 40.0604C16.5165 39.8474 16.6543 39.6653 16.8439 39.5541L31.7926 30.8026C31.9825 30.6917 32.2085 30.6608 32.421 30.7166C32.6336 30.7725 32.8154 30.9105 32.9265 31.1004L41.6635 46.074C41.7741 46.2641 41.805 46.4905 41.7492 46.7034C41.6935 46.9164 41.5557 47.0984 41.3661 47.2097Z" fill="#F01E3D"/>
<path id="Vector_7" d="M77.4469 35.9172L30.6925 63.2889C30.5027 63.4 30.2766 63.4311 30.0639 63.3752C29.8513 63.3193 29.6695 63.1811 29.5586 62.991C29.4477 62.8009 29.4167 62.5745 29.4724 62.3615C29.5282 62.1485 29.6662 61.9664 29.8559 61.8553L76.6104 34.4836C76.7044 34.4286 76.8083 34.3926 76.9161 34.3778C77.024 34.363 77.1337 34.3696 77.2389 34.3973C77.3442 34.4249 77.4431 34.4731 77.5298 34.539C77.6165 34.6049 77.6894 34.6873 77.7443 34.7814C77.7992 34.8756 77.8351 34.9796 77.8499 35.0876C77.8647 35.1957 77.8581 35.3055 77.8305 35.411C77.8028 35.5165 77.7548 35.6155 77.689 35.7023C77.6232 35.7892 77.5409 35.8622 77.4469 35.9172Z" fill="#CCCCCC"/>
<path id="Vector_8" d="M69.0377 47.4655L33.5743 68.2271C33.4803 68.2821 33.3765 68.318 33.2686 68.3328C33.1608 68.3476 33.0511 68.341 32.9458 68.3134C32.7331 68.2575 32.5513 68.1193 32.4404 67.9292C32.3295 67.7391 32.2985 67.5126 32.3543 67.2996C32.41 67.0866 32.548 66.9045 32.7378 66.7934L68.2012 46.0319C68.2952 45.9769 68.3991 45.941 68.5069 45.9261C68.6147 45.9113 68.7245 45.918 68.8297 45.9456C68.935 45.9733 69.0339 46.0214 69.1206 46.0873C69.2073 46.1533 69.2802 46.2356 69.3351 46.3298C69.39 46.4239 69.4259 46.528 69.4407 46.636C69.4555 46.744 69.4489 46.8539 69.4212 46.9594C69.3936 47.0648 69.3456 47.1638 69.2798 47.2507C69.2139 47.3375 69.1317 47.4105 69.0377 47.4655Z" fill="#CCCCCC"/>
<path id="Vector_9" d="M66.6924 17.8508L46.0186 29.9539C45.8288 30.065 45.6028 30.0961 45.3901 30.0402C45.1775 29.9844 44.9957 29.8462 44.8848 29.6561C44.7738 29.466 44.7428 29.2395 44.7986 29.0265C44.8544 28.8135 44.9923 28.6314 45.1821 28.5203L65.8559 16.4172C66.0457 16.3061 66.2717 16.275 66.4844 16.3309C66.5897 16.3585 66.6885 16.4067 66.7752 16.4726C66.8619 16.5385 66.9348 16.6209 66.9898 16.715C67.0447 16.8092 67.0806 16.9132 67.0953 17.0212C67.1101 17.1293 67.1035 17.2391 67.0759 17.3446C67.0483 17.4501 67.0002 17.5491 66.9344 17.6359C66.8686 17.7228 66.7864 17.7958 66.6924 17.8508Z" fill="#CCCCCC"/>
<path id="Vector_10" d="M64.4138 25.8093L48.8995 34.8919C48.8055 34.9469 48.7016 34.9829 48.5938 34.9977C48.486 35.0125 48.3763 35.0058 48.271 34.9782C48.1657 34.9505 48.0669 34.9024 47.9801 34.8365C47.8934 34.7705 47.8205 34.6882 47.7656 34.594C47.7107 34.4999 47.6748 34.3959 47.66 34.2878C47.6452 34.1798 47.6518 34.0699 47.6795 33.9645C47.7071 33.859 47.7552 33.76 47.821 33.6732C47.8868 33.5863 47.969 33.5133 48.063 33.4583L63.5773 24.3757C63.7671 24.2645 63.9931 24.2335 64.2058 24.2894C64.4184 24.3452 64.6002 24.4834 64.7111 24.6735C64.8221 24.8636 64.8531 25.0901 64.7973 25.3031C64.7415 25.5161 64.6036 25.6982 64.4138 25.8093Z" fill="#CCCCCC"/>
<path id="Vector_11" d="M83.2096 45.7932L36.4552 73.1649C36.2654 73.276 36.0393 73.307 35.8266 73.2512C35.614 73.1953 35.4322 73.0571 35.3213 72.867C35.2103 72.6769 35.1794 72.4504 35.2351 72.2374C35.2909 72.0244 35.4288 71.8424 35.6186 71.7312L82.3731 44.3595C82.5629 44.2484 82.789 44.2174 83.0016 44.2733C83.2143 44.3291 83.3961 44.4673 83.507 44.6574C83.6179 44.8475 83.6489 45.074 83.5932 45.287C83.5374 45.5 83.3994 45.6821 83.2096 45.7932Z" fill="#CCCCCC"/>
<path id="Vector_12" d="M74.8004 57.3415L39.337 78.103C39.243 78.1581 39.1391 78.194 39.0313 78.2088C38.9235 78.2236 38.8138 78.217 38.7085 78.1893C38.6032 78.1617 38.5044 78.1135 38.4176 78.0476C38.3309 77.9817 38.258 77.8993 38.2031 77.8052C38.1482 77.711 38.1123 77.607 38.0975 77.499C38.0827 77.391 38.0893 77.2811 38.117 77.1756C38.1446 77.0701 38.1927 76.9712 38.2585 76.8843C38.3243 76.7974 38.4065 76.7244 38.5005 76.6694L73.9639 55.9079C74.0579 55.8529 74.1618 55.8169 74.2696 55.8021C74.3774 55.7873 74.4871 55.7939 74.5924 55.8216C74.6977 55.8493 74.7966 55.8974 74.8833 55.9633C74.97 56.0292 75.0429 56.1116 75.0978 56.2057C75.1527 56.2999 75.1886 56.4039 75.2034 56.512C75.2182 56.62 75.2116 56.7299 75.1839 56.8353C75.1563 56.9408 75.1083 57.0398 75.0424 57.1266C74.9766 57.2135 74.8944 57.2865 74.8004 57.3415Z" fill="#CCCCCC"/>
<path id="Vector_13" d="M88.9723 55.6696L42.2179 83.0413C42.1239 83.0964 42.02 83.1323 41.9122 83.1471C41.8043 83.1619 41.6946 83.1553 41.5893 83.1276C41.484 83.1 41.3852 83.0518 41.2985 82.9859C41.2118 82.92 41.1389 82.8376 41.084 82.7435C41.029 82.6493 40.9932 82.5453 40.9784 82.4373C40.9636 82.3293 40.9702 82.2194 40.9978 82.1139C41.0254 82.0084 41.0735 81.9094 41.1393 81.8226C41.2051 81.7357 41.2874 81.6627 41.3813 81.6077L88.1358 54.236C88.2298 54.181 88.3337 54.1451 88.4415 54.1302C88.5494 54.1154 88.6591 54.1221 88.7643 54.1497C88.8696 54.1774 88.9684 54.2255 89.0552 54.2914C89.1419 54.3574 89.2148 54.4397 89.2697 54.5339C89.3246 54.628 89.3605 54.7321 89.3753 54.8401C89.3901 54.9481 89.3835 55.058 89.3558 55.1635C89.3282 55.2689 89.2802 55.3679 89.2143 55.4548C89.1485 55.5416 89.0663 55.6146 88.9723 55.6696Z" fill="#CCCCCC"/>
<path id="Vector_14" d="M91.8542 60.6076L45.0997 87.9793C45.0057 88.0343 44.9018 88.0703 44.794 88.0851C44.6861 88.0999 44.5764 88.0933 44.4712 88.0656C44.3659 88.038 44.267 87.9898 44.1803 87.9239C44.0936 87.858 44.0207 87.7756 43.9658 87.6815C43.9109 87.5873 43.875 87.4833 43.8602 87.3753C43.8454 87.2672 43.852 87.1574 43.8797 87.0519C43.9073 86.9464 43.9553 86.8474 44.0211 86.7606C44.087 86.6737 44.1692 86.6007 44.2632 86.5457L91.0176 59.174C91.1116 59.119 91.2155 59.083 91.3233 59.0682C91.4312 59.0534 91.5409 59.06 91.6462 59.0877C91.7515 59.1154 91.8503 59.1635 91.937 59.2294C92.0237 59.2954 92.0966 59.3777 92.1515 59.4719C92.2064 59.566 92.2423 59.67 92.2571 59.7781C92.2719 59.8861 92.2653 59.996 92.2377 60.1014C92.2101 60.2069 92.162 60.3059 92.0962 60.3927C92.0304 60.4796 91.9481 60.5526 91.8542 60.6076Z" fill="#CCCCCC"/>
<path id="Vector_15" d="M76.7348 79.8306C77.3844 79.0644 77.9691 78.2453 78.4828 77.3818C78.9435 76.6028 79.3955 75.7699 79.4971 74.8563C79.549 74.4673 79.5086 74.0715 79.379 73.701C79.2494 73.3306 79.0344 72.996 78.7514 72.7245C78.4779 72.472 78.1312 72.3132 77.7616 72.2711C77.392 72.229 77.0186 72.3058 76.6955 72.4905C76.3685 72.6784 76.0983 72.9515 75.9136 73.2807C75.7289 73.6099 75.6365 73.9831 75.6462 74.3606C75.6727 74.7763 75.7926 75.1806 75.9969 75.5434C76.2012 75.9061 76.4847 76.218 76.8261 76.4558C78.2081 77.4587 80.3663 77.4063 81.8393 76.6431C83.4983 75.7834 84.3555 73.5343 83.0521 71.9948C82.781 71.6746 82.3298 72.0324 82.3977 72.3778C82.4839 72.8444 82.7446 73.2605 83.1267 73.541C83.5087 73.8215 83.9833 73.9453 84.4535 73.8871C84.9236 73.8289 85.3538 73.5931 85.6562 73.2278C85.9586 72.8626 86.1104 72.3955 86.0805 71.922L85.4946 72.265C86.213 72.5837 87.0024 72.7073 87.7836 72.6234C88.5648 72.5394 89.3102 72.2509 89.9447 71.7868C90.2586 71.5584 90.5389 71.287 90.7775 70.9806C91.0643 70.6058 91.5461 70.3637 91.9362 70.0937L94.7476 68.1479C95.1611 67.8617 94.7679 67.1796 94.3509 67.4682L91.8048 69.2304C91.3805 69.524 90.9534 69.8141 90.5317 70.1115C90.2303 70.3241 90.0448 70.6673 89.7705 70.9197C89.2512 71.3877 88.6097 71.6981 87.9209 71.8148C87.2322 71.9315 86.5245 71.8497 85.8804 71.5789C85.8204 71.5466 85.7531 71.5302 85.6849 71.5315C85.6168 71.5327 85.5502 71.5514 85.4914 71.5858C85.4325 71.6203 85.3835 71.6692 85.3491 71.7281C85.3146 71.7869 85.2958 71.8537 85.2944 71.9219C85.3255 72.2045 85.2438 72.4879 85.0672 72.7104C84.8905 72.933 84.6333 73.0766 84.3515 73.11C84.0697 73.1435 83.786 73.064 83.5624 72.889C83.3388 72.7139 83.1933 72.4575 83.1575 72.1755L82.5032 72.5585C83.344 73.5517 82.7841 75.075 81.8154 75.7414C80.7321 76.4867 79.1313 76.6161 77.9102 76.1528C77.6106 76.0495 77.3356 75.8855 77.1021 75.671C76.8687 75.4565 76.682 75.1961 76.5536 74.906C76.4345 74.644 76.4006 74.3511 76.4565 74.0687C76.5124 73.7863 76.6553 73.5286 76.8652 73.3319C77.047 73.152 77.2915 73.0499 77.5471 73.0471C77.8027 73.0444 78.0494 73.1413 78.235 73.3173C78.4372 73.5241 78.5855 73.7775 78.667 74.0552C78.7484 74.3328 78.7604 74.6263 78.702 74.9098C78.576 75.6985 78.1407 76.4259 77.7357 77.0996C77.2733 77.8672 76.7504 78.5966 76.172 79.2808C75.8477 79.6652 76.4071 80.219 76.7348 79.8306Z" fill="#F01E3D"/>
<path id="Vector_16" d="M83.7129 98.5502C83.7807 98.62 83.8428 98.695 83.8988 98.7746L92.6051 98.5612L93.6208 96.7021L96.6222 97.8708L95.1434 101.337C95.0239 101.617 94.817 101.851 94.5537 102.003C94.2904 102.155 93.9849 102.218 93.6831 102.181L83.8465 100.991C83.6145 101.285 83.2985 101.502 82.9407 101.611C82.5828 101.721 82.2 101.72 81.8431 101.606C81.4863 101.493 81.1723 101.274 80.943 100.977C80.7137 100.681 80.5799 100.322 80.5594 99.9474C80.5389 99.573 80.6327 99.2012 80.8283 98.8815C81.0239 98.5618 81.312 98.3093 81.6543 98.1576C81.9967 98.006 82.377 97.9623 82.7447 98.0324C83.1125 98.1025 83.4502 98.2831 83.7129 98.5502Z" fill="#A0616A"/>
<path id="Vector_17" d="M112.094 151.512H109.231L107.869 140.452L112.094 140.452L112.094 151.512Z" fill="#FFB7B7"/>
<path id="Vector_18" d="M112.824 154.292L103.594 154.291V154.174C103.594 153.22 103.972 152.305 104.646 151.63C105.32 150.955 106.234 150.576 107.187 150.576H107.187L112.824 150.576L112.824 154.292Z" fill="#131313"/>
<path id="Vector_19" d="M86.1002 151.448L83.4678 150.322L86.5529 139.615L90.4382 141.277L86.1002 151.448Z" fill="#FFB7B7"/>
<path id="Vector_20" d="M85.6808 154.292L77.1924 150.659L77.2382 150.552C77.6126 149.674 78.3197 148.981 79.204 148.626C80.0882 148.27 81.0773 148.281 81.9535 148.656L81.9537 148.656L87.1381 150.875L85.6808 154.292Z" fill="#131313"/>
<path id="Vector_21" d="M98.1798 100.946L97.9727 104.306L104.024 104.955L110.355 105.633L108.492 100.531L98.1798 100.946Z" fill="#FFB7B7"/>
<path id="Vector_22" d="M97.7823 104.349L95.4316 87.9346L99.5061 86.597L100.703 84.9531L106.526 85.2983L107.381 87.2166L110.486 88.6863L110.009 97.5637L110.357 104.99L97.7823 104.349Z" fill="#131313"/>
<path id="Vector_23" d="M96.3026 99.9502L92.1582 98.2893L92.1759 98.2154C92.1937 98.141 93.9575 90.7577 94.1918 89.5712C94.4357 88.3351 95.3271 87.9934 95.365 87.9795L95.3926 87.9692L97.0328 88.4693L97.7531 94.1384L96.3026 99.9502Z" fill="#131313"/>
<path id="Vector_24" d="M88.2316 149.505L82.7148 148.371L91.5322 124L94.55 115.688C94.55 115.688 96.464 109.023 97.3287 106.444L97.8506 102.983L110.204 104.353C110.204 104.353 113.655 109.428 112.607 117.701L113.081 148.796L107.564 149.08L102.943 117.719L94.8329 134.911C94.8329 134.911 92.2767 142.247 90.4478 143.837L88.2316 149.505Z" fill="#131313"/>
<path id="Vector_25" d="M105.25 105.506C105.347 105.504 105.444 105.509 105.541 105.522L111.304 98.9825L110.634 96.9724L113.53 95.5625L115.062 99.0053C115.186 99.2835 115.216 99.5943 115.148 99.8912C115.081 100.188 114.919 100.455 114.687 100.652L107.128 107.068C107.185 107.438 107.129 107.817 106.966 108.155C106.803 108.493 106.542 108.773 106.216 108.958C105.891 109.143 105.517 109.224 105.144 109.191C104.771 109.158 104.417 109.012 104.129 108.773C103.841 108.533 103.632 108.212 103.531 107.85C103.43 107.489 103.441 107.106 103.563 106.752C103.685 106.397 103.911 106.088 104.213 105.866C104.514 105.643 104.876 105.518 105.25 105.506Z" fill="#A0616A"/>
<path id="Vector_26" d="M110.845 99.6192L108.44 93.9547L109.378 90.0091L110.388 88.7305C110.462 88.6988 110.542 88.6829 110.623 88.6836C110.703 88.6844 110.783 88.7018 110.856 88.7349C111.229 88.8851 111.546 89.3455 111.799 90.1033L114.052 96.5317L110.845 99.6192Z" fill="#131313"/>
<path id="Vector_27" d="M98.3711 82.8543V78.5838C98.3711 77.0661 98.973 75.6106 100.044 74.5374C101.116 73.4642 102.569 72.8613 104.084 72.8613C105.599 72.8613 107.052 73.4642 108.124 74.5374C109.195 75.6106 109.797 77.0661 109.797 78.5838V82.8543C109.797 83.0581 109.716 83.2535 109.572 83.3976C109.428 83.5417 109.233 83.6228 109.03 83.623H99.1385C98.9351 83.6228 98.74 83.5417 98.5961 83.3976C98.4523 83.2535 98.3713 83.0581 98.3711 82.8543Z" fill="#131313"/>
<path id="Vector_28" d="M102.91 83.5233C105.224 83.5233 107.099 81.645 107.099 79.3278C107.099 77.0107 105.224 75.1323 102.91 75.1323C100.597 75.1323 98.7217 77.0107 98.7217 79.3278C98.7217 81.645 100.597 83.5233 102.91 83.5233Z" fill="#A0616A"/>
<path id="Vector_29" d="M97.0195 78.9252C97.0209 77.725 97.4974 76.5744 98.3447 75.7258C99.1919 74.8771 100.341 74.3998 101.539 74.3984H102.391C103.59 74.3998 104.738 74.8771 105.586 75.7258C106.433 76.5744 106.909 77.725 106.911 78.9252V79.0106H105.109L104.494 77.2867L104.371 79.0106H103.44L103.13 78.1408L103.068 79.0106H97.0195L97.0195 78.9252Z" fill="#131313"/>
<path id="Vector_30" d="M102.498 84.1028C102.414 83.988 102.363 83.8517 102.353 83.7094C102.342 83.5672 102.372 83.4248 102.438 83.2987C103.342 81.5772 104.607 78.3962 102.928 76.4344L102.807 76.2935H107.682V83.625L103.254 84.4077C103.209 84.4157 103.163 84.4197 103.118 84.4197C102.997 84.4197 102.878 84.391 102.77 84.3359C102.662 84.2808 102.569 84.2009 102.498 84.1028Z" fill="#131313"/>
<path id="Vector_31" d="M45.6279 149.096L48.215 150.022L53.0125 140.467L49.1941 139.101L45.6279 149.096Z" fill="#9F616A"/>
<path id="Vector_32" d="M44.0713 151.372L45.2695 148.014L50.3645 149.838C51.225 150.147 51.9279 150.785 52.3191 151.613C52.7103 152.44 52.7577 153.39 52.4511 154.252L52.4133 154.358L44.0713 151.372Z" fill="#131313"/>
<path id="Vector_33" d="M62.4506 151.659L65.198 151.659L66.5051 141.044L62.4502 141.045L62.4506 151.659Z" fill="#9F616A"/>
<path id="Vector_34" d="M61.75 150.761L67.1606 150.761H67.1608C67.6136 150.761 68.062 150.85 68.4803 151.024C68.8986 151.197 69.2788 151.452 69.5989 151.772C69.9191 152.093 70.1731 152.474 70.3464 152.893C70.5197 153.312 70.6089 153.761 70.6089 154.214V154.327L61.7502 154.327L61.75 150.761Z" fill="#131313"/>
<path id="Vector_35" d="M56.1895 83.8449L57.3843 81.48C57.3843 81.48 61.8354 82.597 62.2401 85.1811L56.1895 83.8449Z" fill="#F1F1F1"/>
<path id="Vector_36" d="M51.2594 110.885L54.5086 129.048L45.8809 144.331L51.0351 146.352L59.775 131.537L60.8955 127.496L61.5677 148.596L66.2162 148.455L68.3474 128.753L64.9291 110.437L51.2594 110.885Z" fill="#131313"/>
<path id="Vector_37" d="M57.4274 115.179C52.6539 115.179 49.6231 114.264 49.5552 114.25L49.4453 114.227L51.9317 102.68L52.0436 92.0289C52.0436 87.5154 55.0093 84.1878 55.4208 83.8806C55.4901 83.6067 55.6183 83.3512 55.7964 83.1319C55.9744 82.9127 56.1981 82.7351 56.4519 82.6114C57.4411 82.1618 58.6499 82.7013 58.7008 82.7245L62.3291 84.0871L62.3462 84.1376C62.3899 84.2667 67.1689 99.9815 67.1689 99.9815C67.1689 99.9815 66.8796 113.712 66.7788 114.162C66.7788 114.162 60.0797 115.179 57.4274 115.179Z" fill="#3F3D56"/>
<path id="Vector_38" d="M61.0953 80.7357C63.8036 80.7357 65.9992 78.5365 65.9992 75.8237C65.9992 73.1108 63.8036 70.9116 61.0953 70.9116C58.387 70.9116 56.1914 73.1108 56.1914 75.8237C56.1914 78.5365 58.387 80.7357 61.0953 80.7357Z" fill="#9F616A"/>
<path id="Vector_39" opacity="0.2" d="M55.6279 92.8999L64.2073 104.89L65.4742 99.2907L55.6279 92.8999Z" fill="black"/>
<path id="Vector_40" d="M82.5257 101.059C82.2844 101.25 82.0042 101.386 81.7048 101.457C81.4054 101.528 81.0941 101.532 80.7929 101.469C80.4916 101.407 80.2077 101.279 79.9612 101.095C79.7146 100.91 79.5115 100.674 79.3659 100.402L71.9814 101.586L73.5813 98.0388L80.3484 97.4584C80.82 97.2438 81.3538 97.2099 81.8487 97.3631C82.3435 97.5163 82.7651 97.8461 83.0335 98.2898C83.3018 98.7336 83.3984 99.2606 83.3048 99.7708C83.2112 100.281 82.934 100.739 82.5257 101.059Z" fill="#9F616A"/>
<path id="Vector_41" d="M73.9619 97.8368L76.6152 97.5762L77.3506 101.284L74.0118 101.343L73.9619 97.8368Z" fill="#F1F1F1"/>
<path id="Vector_42" d="M76.137 102.575L63.1421 101.416L56.5805 90.9637L56.5603 90.8713C56.3741 90.0175 56.5045 89.1249 56.9272 88.3603C57.3498 87.5956 58.0359 87.0112 58.8572 86.7162C59.6785 86.4211 60.579 86.4355 61.3905 86.7568C62.2019 87.078 62.869 87.6841 63.267 88.4618L67.1188 95.9876L74.8925 97.1646L76.137 102.575Z" fill="#3F3D56"/>
<path id="Vector_43" d="M56.919 80.0881L60.9893 80.2344C61.2374 80.2433 61.9108 77.5613 61.9989 77.0049C62.0686 76.6427 62.2675 76.3183 62.5585 76.0922C62.8495 75.8662 63.2127 75.7539 63.5803 75.7765C63.885 75.8053 64.6533 75.2352 65.4461 74.56C66.9513 73.2783 66.873 70.8709 65.2196 69.7878C65.1744 69.7582 65.13 69.7312 65.0865 69.7067C64.0434 69.1219 62.8232 68.9255 61.628 68.9106C60.5445 68.897 59.4302 69.0336 58.4757 69.5473C56.7643 70.4683 55.8536 72.4808 55.7736 74.4251C55.6936 76.3693 56.3158 78.2705 57.0219 80.0833" fill="#131313"/>
<path id="Vector_44" d="M158.952 154.52H0.463137C0.406609 154.52 0.352397 154.497 0.312426 154.457C0.272455 154.417 0.25 154.363 0.25 154.306C0.25 154.25 0.272455 154.195 0.312426 154.155C0.352397 154.115 0.406609 154.093 0.463137 154.093H159.037C159.093 154.093 159.148 154.115 159.188 154.155C159.228 154.195 159.25 154.25 159.25 154.306C159.25 154.424 159.07 154.52 158.952 154.52Z" fill="#CBCBCB"/>
</g>
<defs>
<clipPath id="clip0_860_24183">
<rect width="159" height="154" fill="white" transform="translate(0.25 0.519531)"/>
</clipPath>
</defs>
</svg>
