<svg width="25" height="26" viewBox="0 0 25 26" fill="none" xmlns="http://www.w3.org/2000/svg">
<g id="ic:outline-whatsapp">
<path id="Vector" d="M19.8431 5.43317C18.8881 4.46851 17.7506 3.70365 16.4969 3.18322C15.2432 2.66279 13.8984 2.39719 12.541 2.40192C6.85352 2.40192 2.2181 7.03733 2.2181 12.7248C2.2181 14.5477 2.69727 16.3186 3.5931 17.8811L2.13477 23.2353L7.60352 21.7978C9.11393 22.6207 10.8118 23.0582 12.541 23.0582C18.2285 23.0582 22.8639 18.4228 22.8639 12.7353C22.8639 9.97483 21.791 7.38108 19.8431 5.43317ZM12.541 21.3082C10.9993 21.3082 9.48893 20.8915 8.16602 20.1103L7.85352 19.9227L4.60352 20.7769L5.4681 17.6103L5.25977 17.2873C4.40325 15.9196 3.94845 14.3386 3.94727 12.7248C3.94727 7.99567 7.80143 4.1415 12.5306 4.1415C14.8223 4.1415 16.9785 5.03733 18.5931 6.66233C19.3926 7.45813 20.0261 8.40469 20.4571 9.44715C20.888 10.4896 21.1077 11.6072 21.1035 12.7353C21.1243 17.4644 17.2702 21.3082 12.541 21.3082ZM17.2493 14.8915C16.9889 14.7665 15.7181 14.1415 15.4889 14.0478C15.2493 13.9644 15.0827 13.9228 14.9056 14.1728C14.7285 14.4332 14.2389 15.0165 14.0931 15.1832C13.9473 15.3603 13.791 15.3811 13.5306 15.2457C13.2702 15.1207 12.4368 14.8394 11.4577 13.9644C10.6868 13.2769 10.1764 12.4332 10.0202 12.1728C9.87435 11.9123 9.99935 11.7769 10.1348 11.6415C10.2493 11.5269 10.3952 11.3394 10.5202 11.1936C10.6452 11.0477 10.6973 10.9332 10.7806 10.7665C10.8639 10.5894 10.8223 10.4436 10.7598 10.3186C10.6973 10.1936 10.1764 8.92275 9.9681 8.40192C9.75976 7.90192 9.54102 7.96442 9.38477 7.954H8.88476C8.70768 7.954 8.43685 8.0165 8.19727 8.27692C7.9681 8.53733 7.30143 9.16233 7.30143 10.4332C7.30143 11.704 8.22852 12.9332 8.35352 13.0998C8.47852 13.2769 10.1764 15.8811 12.7598 16.9957C13.3743 17.2665 13.8535 17.4228 14.2285 17.5373C14.8431 17.7353 15.4056 17.704 15.8535 17.6415C16.3535 17.5686 17.3848 17.0165 17.5931 16.4123C17.8118 15.8082 17.8118 15.2978 17.7389 15.1832C17.666 15.0686 17.5098 15.0165 17.2493 14.8915Z" fill="#F01E3D"/>
</g>
</svg>
